<svg id="Layer_1" data-name="Layer 1" xmlns="http://www.w3.org/2000/svg" viewBox="0 0 250 203.178">
  <defs>
    <style>
      .cls-1 {
        fill: #fff;
      }
    </style>
  </defs>
  <title>8a9395a8-4b84-4046-8483-8509f3240de1</title>
  <path class="cls-1" d="M78.623,203.178c94.343,0,145.936-78.161,145.936-145.936,0-2.221-.045-4.432-0.147-6.631A104.358,104.358,0,0,0,250,24.054a102.382,102.382,0,0,1-29.456,8.074A51.468,51.468,0,0,0,243.1,3.755a102.788,102.788,0,0,1-32.568,12.45,51.337,51.337,0,0,0-87.408,46.777A145.617,145.617,0,0,1,17.4,9.394,51.331,51.331,0,0,0,33.278,77.867a50.914,50.914,0,0,1-23.231-6.416c-0.011.214-.011,0.429-0.011,0.654a51.313,51.313,0,0,0,41.15,50.285,51.212,51.212,0,0,1-23.163.879,51.349,51.349,0,0,0,47.916,35.625,102.923,102.923,0,0,1-63.7,21.956A104.413,104.413,0,0,1,0,180.139a145.209,145.209,0,0,0,78.623,23.039"/>
</svg>
