<svg xmlns="http://www.w3.org/2000/svg" viewBox="0 0 1317.541 709.801">
  <defs>
    <style>
      .cls-1 {
        isolation: isolate;
      }

      .cls-2 {
        fill: #1a1a1a;
      }

      .cls-3, .cls-7 {
        fill: #4d4d4d;
      }

      .cls-4 {
        fill: #333;
      }

      .cls-5 {
        fill: #fff;
      }

      .cls-6 {
        fill: #666;
      }

      .cls-14, .cls-7 {
        opacity: 0.32;
        mix-blend-mode: multiply;
      }

      .cls-8 {
        fill: #fbb795;
      }

      .cls-9 {
        fill: #8c6239;
      }

      .cls-10 {
        fill: #f7ffdf;
      }

      .cls-10, .cls-11 {
        stroke: #000;
        stroke-width: 20px;
      }

      .cls-10, .cls-11, .cls-15 {
        stroke-miterlimit: 10;
      }

      .cls-11, .cls-15 {
        fill: none;
        stroke-linecap: round;
      }

      .cls-12 {
        fill: #009245;
      }

      .cls-13 {
        fill: #3fa9f5;
      }

      .cls-15 {
        stroke: #fff;
        stroke-width: 4px;
      }

      .cls-16 {
        fill: #b3b3b3;
      }
    </style>
  </defs>
  <title>47d5f602-3334-4563-88c6-6b3b295030db</title>
  <g class="cls-1">
    <g id="Layer_1" data-name="Layer 1">
      <g>
        <rect class="cls-2" x="327.082" y="283.183" width="194.566" height="111.18"/>
        <rect class="cls-3" x="333.539" y="289.305" width="181.654" height="98.936"/>
        <polygon class="cls-4" points="445.935 424.748 251.368 424.748 327.082 394.363 521.649 394.363 445.935 424.748"/>
        <rect class="cls-2" x="251.368" y="424.748" width="194.22" height="7.337"/>
        <polygon class="cls-2" points="521.355 394.44 521.355 399.642 445.355 432.086 445.355 424.613 521.355 394.44"/>
        <g>
          <path class="cls-5" d="M347.021,300.213l-4.56,2.737v-0.9l3.657-2.177-3.657-2.23v-0.878l4.56,2.713v0.731Z"/>
          <path class="cls-5" d="M355.823,306.979h-7.492v-0.8h7.492v0.8Z"/>
        </g>
        <polygon class="cls-6" points="436.47 422.329 272.891 422.329 336.547 396.783 500.126 396.783 436.47 422.329"/>
        <polygon class="cls-7" points="419.75 388.241 333.539 388.241 333.539 289.305 474.201 289.305 419.75 388.241"/>
      </g>
      <g>
        <g>
          <path class="cls-8" d="M228.266,442.718c0-53.9,34.993-97.588,78.159-97.588s78.159,43.692,78.159,97.588"/>
          <path class="cls-9" d="M388.03,442.718h-6.894c0-51.909-33.516-94.141-74.712-94.141s-74.712,42.232-74.712,94.141h-6.894c0-55.711,36.608-101.035,81.606-101.035S388.03,387.007,388.03,442.718Z"/>
        </g>
        <g>
          <path class="cls-9" d="M384.583,420.848c0-53.9-118.216-75.717-75.05-75.717s78.159,43.692,78.159,97.588"/>
          <path class="cls-9" d="M391.139,442.718h-6.894a117.436,117.436,0,0,0-2.035-21.871h-1.073c0-31.308-44.17-51.709-67.9-62.67-4.462-2.061-8.315-3.841-10.993-5.3-2.367-1.288-6.33-3.444-5.544-7.019,0.854-3.887,5.636-4.178,12.835-4.178C354.531,341.684,391.139,387.007,391.139,442.718ZM309,348.579c2.2,1.066,4.731,2.234,7.125,3.34,13.774,6.362,34.055,15.73,49.568,28.778-13.7-19.679-33.8-32.12-56.161-32.12H309Z"/>
        </g>
        <path class="cls-9" d="M228.266,442.718c0-53.9,34.993-97.588,78.159-97.588s-48.248,43.692-48.248,97.588"/>
        <g>
          <path d="M301.886,442.718c0-6.42,2.032-11.625,4.539-11.625s4.539,5.2,4.539,11.625"/>
          <path d="M311.136,442.718h-0.345c0-6.315-1.959-11.452-4.367-11.452s-4.367,5.137-4.367,11.452h-0.345c0-6.615,2.07-11.8,4.711-11.8S311.136,436.1,311.136,442.718Z"/>
        </g>
        <g>
          <path d="M346.66,442.718c0-6.42,2.032-11.625,4.539-11.625s4.539,5.2,4.539,11.625"/>
          <path d="M355.91,442.718h-0.345c0-6.315-1.959-11.452-4.367-11.452s-4.367,5.137-4.367,11.452h-0.345c0-6.615,2.07-11.8,4.711-11.8S355.91,436.1,355.91,442.718Z"/>
        </g>
        <path d="M359.329,421.54a2.413,2.413,0,0,1-2.117-1.252c-1.295-2.356-2.892-3.973-4.5-4.555-3.708-1.342-7,3.493-7.364,4.048a2.413,2.413,0,1,1-4.038-2.642c2.6-3.979,7.583-7.923,13.043-5.944,3.475,1.257,5.772,4.375,7.087,6.769A2.414,2.414,0,0,1,359.329,421.54Z"/>
        <path d="M314.476,422.428a2.413,2.413,0,0,1-2.117-1.252c-1.295-2.356-2.892-3.973-4.5-4.555-3.712-1.341-7,3.493-7.364,4.048a2.413,2.413,0,0,1-4.038-2.642c2.6-3.979,7.583-7.923,13.043-5.944,3.475,1.257,5.772,4.375,7.087,6.769A2.414,2.414,0,0,1,314.476,422.428Z"/>
      </g>
      <circle class="cls-10" cx="115" cy="355.26" r="105"/>
      <circle class="cls-10" cx="664.376" cy="355.26" r="105"/>
      <circle class="cls-10" cx="529.205" cy="115" r="105"/>
      <circle class="cls-10" cx="255.002" cy="115" r="105"/>
      <circle class="cls-10" cx="254.686" cy="594.801" r="105"/>
      <circle class="cls-10" cx="529.533" cy="594.801" r="105"/>
      <polyline class="cls-11" points="798.543 540.116 986.531 352.129 798.543 164.141"/>
      <g>
        <rect class="cls-4" x="1066.797" y="209.85" width="241.762" height="291.672"/>
        <path d="M1317.541,510.5H1057.814V200.868h259.727V510.5ZM1075.779,492.54h223.8V218.832h-223.8V492.54Z"/>
      </g>
      <g>
        <circle class="cls-12" cx="1106.319" cy="265.519" r="16.767"/>
        <path d="M1106.319,288.274a22.755,22.755,0,1,1,22.755-22.755A22.781,22.781,0,0,1,1106.319,288.274Zm0-33.534a10.779,10.779,0,1,0,10.779,10.779A10.791,10.791,0,0,0,1106.319,254.74Z"/>
      </g>
      <path d="M1277.093,424.551H1121.181a5.988,5.988,0,1,1,0-11.977h155.912A5.988,5.988,0,1,1,1277.093,424.551Z"/>
      <path d="M1277.093,444.568H1121.181a5.988,5.988,0,1,1,0-11.977h155.912A5.988,5.988,0,1,1,1277.093,444.568Z"/>
      <path d="M1277.093,459.735H1121.181a3.593,3.593,0,1,1,0-7.186h155.912A3.593,3.593,0,1,1,1277.093,459.735Z"/>
      <g>
        <rect class="cls-13" x="1149.435" y="241.239" width="127.659" height="106.319"/>
        <path d="M1283.081,353.546H1143.446V235.251h139.635V353.546ZM1155.423,341.57H1271.1V247.228H1155.423V341.57Z"/>
      </g>
      <g class="cls-14">
        <polygon class="cls-4" points="1172.19 501.778 1066.797 501.778 1066.797 210.105 1244.648 210.105 1172.19 501.778"/>
      </g>
      <rect x="189.607" y="550.225" width="130.791" height="89.153" rx="23.17" ry="23.17"/>
      <g>
        <path class="cls-5" d="M223.015,575.565l-16,9.606v-3.146l12.837-7.638-12.837-7.831v-3.081l16,9.521v2.567Z"/>
        <path class="cls-5" d="M253.909,599.313H227.614v-2.8h26.295v2.8Z"/>
      </g>
      <g>
        <path d="M528.108,650.926a53.831,53.831,0,0,1-10.843-106.557,4.161,4.161,0,0,1,4.974,3.639,4.293,4.293,0,0,1-3.471,4.55,45.5,45.5,0,1,0,18.634-.01A4.294,4.294,0,0,1,533.925,548a4.164,4.164,0,0,1,4.97-3.646A53.831,53.831,0,0,1,528.108,650.926Z"/>
        <path d="M528.108,594.881a4.161,4.161,0,0,1-4.162-4.162V529.264a4.162,4.162,0,1,1,8.324,0v61.455A4.161,4.161,0,0,1,528.108,594.881Z"/>
      </g>
      <g>
        <polygon class="cls-2" points="723.556 315.461 664.376 335.484 605.196 315.461 664.376 295.465 723.556 315.461"/>
        <polygon class="cls-4" points="723.556 382.914 664.376 408.793 664.376 335.484 723.556 315.461 723.556 382.914"/>
        <polygon class="cls-3" points="605.196 382.914 664.376 408.793 664.376 335.484 605.196 315.461 605.196 382.914"/>
      </g>
      <polygon points="577.399 170.557 492.938 170.557 492.938 52.565 551.513 52.565 552.146 74.636 577.399 74.848 577.399 170.557"/>
      <line class="cls-15" x1="504.468" y1="82.558" x2="565.869" y2="82.558"/>
      <line class="cls-15" x1="504.468" y1="98.643" x2="565.869" y2="98.643"/>
      <line class="cls-15" x1="504.468" y1="114.727" x2="565.869" y2="114.727"/>
      <line class="cls-15" x1="504.468" y1="130.811" x2="565.869" y2="130.811"/>
      <line class="cls-15" x1="504.468" y1="146.895" x2="565.869" y2="146.895"/>
      <polygon class="cls-3" points="551.513 52.565 577.399 74.848 552.146 74.636 551.513 52.565"/>
      <polygon class="cls-16" points="159.708 402.04 53.613 402.04 53.613 319.573 58.709 309.843 82.106 309.843 91.603 319.573 171.059 319.573 159.708 402.04"/>
      <polygon class="cls-4" points="159.708 402.04 53.613 402.04 63.11 323.279 176.387 323.279 159.708 402.04"/>
      <rect x="210.173" y="47.241" width="89.659" height="123.387" rx="43.576" ry="43.576"/>
      <path class="cls-5" d="M268.374,139.556v4.682H243.007v-4.682a2.1,2.1,0,0,1,1.633-2.068c0.98-.218,6.314-1.2,6.314-1.2v-39.3s-5.334-.98-6.314-1.2a2.1,2.1,0,0,1-1.633-2.069V89.149h17.528V136.29s5.226,0.98,6.206,1.2A2.1,2.1,0,0,1,268.374,139.556Zm-18.943-65.1a5.646,5.646,0,0,1-.545-2.613,6.089,6.089,0,0,1,.545-2.722,8.388,8.388,0,0,1,1.523-2.287,7.82,7.82,0,0,1,2.178-1.524,6.542,6.542,0,0,1,5.226,0,7.82,7.82,0,0,1,2.178,1.524,8.391,8.391,0,0,1,1.524,2.287,6.239,6.239,0,0,1,.653,2.722,5.8,5.8,0,0,1-.653,2.613,7.65,7.65,0,0,1-3.7,3.7,6.542,6.542,0,0,1-5.226,0A7.643,7.643,0,0,1,249.431,74.451Z"/>
    </g>
  </g>
</svg>
