<svg id="Layer_1" data-name="Layer 1" xmlns="http://www.w3.org/2000/svg" viewBox="0 0 300 77.41">
  <defs>
    <style>
      .cls-1 {
        fill: #43846e;
      }

      .cls-2 {
        fill: #58b587;
      }
    </style>
  </defs>
  <title>fea8d981-3cca-4de9-ba7d-429b458f4b17</title>
  <g>
    <g>
      <path class="cls-1" d="M282.944,60.772H259.819c0.706,6.7,3.879,8.531,8.461,8.531,3.031,0,5.71-1.059,8.953-3.315l4.583,6.2a23.006,23.006,0,0,1-14.593,5.219c-12.478,0-18.824-8.037-18.824-19.74,0-11.209,6.133-20.094,17.484-20.094,10.715,0,17.272,7.051,17.272,19.178A37.4,37.4,0,0,1,282.944,60.772ZM272.228,53.58c-0.071-5.074-1.622-8.6-6.063-8.6-3.736,0-5.852,2.326-6.415,9.094h12.478V53.58Z"/>
      <path class="cls-1" d="M300,70.994a6.38,6.38,0,1,1-6.345-6.346A6.378,6.378,0,0,1,300,70.994Z"/>
    </g>
    <path class="cls-1" d="M51.133,48.857V76.211H39.994V50.762c0-3.949-1.339-5.006-3.525-5.006-2.468,0-4.512,1.762-6.486,4.865v25.59H18.844V38.775h9.729l0.775,4.443c3.173-3.668,6.768-5.643,11.421-5.643C47.254,37.576,51.133,41.738,51.133,48.857Z"/>
    <path class="cls-1" d="M79.706,74.449A18.551,18.551,0,0,1,69.553,77.41c-8.248-.07-12.266-4.725-12.266-13.535V30.668L68.426,29.4v9.375h8.6l-1.2,7.756h-7.4v17.2c0,3.6,1.2,4.865,3.525,4.865a7.408,7.408,0,0,0,4.018-1.27Z"/>
    <path class="cls-1" d="M116.143,60.772H93.019c0.705,6.7,3.877,8.531,8.46,8.531,3.031,0,5.71-1.059,8.953-3.315l4.583,6.2a23.009,23.009,0,0,1-14.594,5.219C87.943,77.41,81.6,69.373,81.6,57.67c0-11.209,6.133-20.094,17.485-20.094,10.715,0,17.273,7.051,17.273,19.178A37.3,37.3,0,0,1,116.143,60.772ZM105.427,53.58c-0.07-5.074-1.621-8.6-6.062-8.6-3.737,0-5.851,2.326-6.415,9.094h12.478V53.58Z"/>
    <path class="cls-1" d="M152.478,42.16l-4.794,6.627a11.229,11.229,0,0,0-7.12-2.68c-4.794,0-7.544,3.244-7.544,11.633,0,8.318,2.961,10.857,7.4,10.857,2.678,0,4.512-.846,7.19-2.539l4.865,6.91a19.472,19.472,0,0,1-12.619,4.441c-11.492,0-18.542-7.754-18.542-19.6,0-11.914,7.121-20.234,18.33-20.234A18.815,18.815,0,0,1,152.478,42.16Z"/>
    <path class="cls-1" d="M179.858,74.449a18.551,18.551,0,0,1-10.152,2.961c-8.248-.07-12.266-4.725-12.266-13.535V30.668L168.579,29.4v9.375h8.6l-1.2,7.756h-7.4v17.2c0,3.6,1.2,4.865,3.524,4.865a7.4,7.4,0,0,0,4.018-1.27Z"/>
    <path class="cls-1" d="M216.3,76.211h-9.659l-0.493-4.723A12.959,12.959,0,0,1,194.8,77.41c-6.98,0-10.435-4.512-10.435-11.773V38.775h11.139V64.227c0,3.807,1.268,4.935,3.595,4.935s4.442-1.551,6.063-4.373V38.775H216.3V76.211Z"/>
    <path class="cls-1" d="M246.992,38.211L245.23,49a13.4,13.4,0,0,0-3.385-.494c-4.582,0-6.557,3.383-7.755,9.023V76.211H222.952V38.775h9.729l0.916,7.191c1.692-5.146,5.358-8.248,9.659-8.248A12.639,12.639,0,0,1,246.992,38.211Z"/>
    <path class="cls-1" d="M6.556,39.8a15.114,15.114,0,0,1-5.5-1.027h0V76.211H12.2V38.775H12.088A15.252,15.252,0,0,1,6.556,39.8Z"/>
    <path class="cls-2" d="M23.017,0C17.2,0,13.183,4.125,13.183,9.518s-2.749,9.518-6.627,9.518a6.348,6.348,0,1,0,0,12.689,6.3,6.3,0,0,0,6.627-6.344c0-3.6,4.017-6.346,9.834-6.346s9.94-4.123,9.94-9.518S28.832,0,23.017,0Z"/>
    <path class="cls-1" d="M298.414,25.447a4.759,4.759,0,0,1-9.519,0A4.759,4.759,0,1,1,298.414,25.447Zm-1.218,0a3.545,3.545,0,1,0-7.08,0A3.542,3.542,0,1,0,297.2,25.447Zm-2.654.307,1.326,2.078h-1.343l-1.077-1.865h-0.394v1.865H291.89v-5h1.452c1.541,0,2.294.5,2.294,1.541A1.454,1.454,0,0,1,294.542,25.754Zm-1.487-.719h0.519a0.716,0.716,0,0,0,.878-0.682c0-.447-0.3-0.645-0.9-0.645h-0.5v1.326Z"/>
  </g>
</svg>
