<svg xmlns="http://www.w3.org/2000/svg" viewBox="0 0 1069.707 589.322">
  <defs>
    <style>
      .cls-1 {
        isolation: isolate;
      }

      .cls-2 {
        fill: #1a1a1a;
      }

      .cls-3, .cls-7 {
        fill: #4d4d4d;
      }

      .cls-4 {
        fill: #333;
      }

      .cls-5 {
        fill: #fff;
      }

      .cls-6 {
        fill: #666;
      }

      .cls-7 {
        opacity: 0.32;
        mix-blend-mode: multiply;
      }
    </style>
  </defs>
  <title>3dde10f6-3d5d-4598-92bd-fd6fb8ca19be</title>
  <g class="cls-1">
    <g id="Layer_1" data-name="Layer 1">
      <rect class="cls-2" x="299.658" width="770.049" height="440.025"/>
      <rect class="cls-3" x="325.211" y="24.229" width="718.943" height="391.566"/>
      <polygon class="cls-4" points="770.049 560.283 0 560.283 299.658 440.025 1069.707 440.025 770.049 560.283"/>
      <rect class="cls-2" y="560.283" width="768.677" height="29.039"/>
      <polygon class="cls-2" points="1067.167 440.33 1067.167 460.92 766.167 589.322 766.167 559.749 1067.167 440.33"/>
      <g>
        <path class="cls-5" d="M378.568,67.4L360.52,78.232V74.686L375,66.071,360.52,57.24V53.767L378.568,64.5v2.9Z"/>
        <path class="cls-5" d="M413.409,94.182H383.756V91.02h29.653v3.161Z"/>
      </g>
      <g>
        <path class="cls-5" d="M476.4,55.006l-2.145,5.106a15.61,15.61,0,0,0-6.061-1.531,8.849,8.849,0,0,0-4.6,1.345,14.728,14.728,0,0,0-4.136,3.847,13.787,13.787,0,0,0-1.89,2.809V89.526H452.3V54.053h5.276v7.184q4.255-8.035,11.03-8.034A17.909,17.909,0,0,1,476.4,55.006Z"/>
        <path class="cls-5" d="M517.632,89.526h-5.311V84.283q-5.719,6.1-12.052,6.095-9.974,0-9.975-12.086V54.053h5.312V76.76q0,4.528,1.43,6.758t4.834,2.229q4.868,0,10.451-6.06V54.053h5.311V89.526Z"/>
        <path class="cls-5" d="M559.539,89.526h-5.311V66.785q0-4.731-1.515-6.859a5.433,5.433,0,0,0-4.749-2.128q-4.869,0-10.452,6.06V89.526H532.2V54.053h5.311v5.209q5.72-6.06,12.052-6.06,9.974,0,9.975,12.051V89.526Z"/>
      </g>
      <polygon class="cls-6" points="732.591 550.707 85.182 550.707 337.116 449.601 984.525 449.601 732.591 550.707"/>
      <polygon class="cls-7" points="666.415 415.796 325.211 415.796 325.211 24.229 881.919 24.229 666.415 415.796"/>
    </g>
  </g>
</svg>
