<svg id="Layer_1" data-name="Layer 1" xmlns="http://www.w3.org/2000/svg" viewBox="0 0 1185.235 1286.244">
  <defs>
    <style>
      .cls-1 {
        fill: #ff685b;
      }

      .cls-1, .cls-2, .cls-3, .cls-4, .cls-5 {
        stroke: #000;
      }

      .cls-1, .cls-10, .cls-2, .cls-3, .cls-4, .cls-5 {
        stroke-miterlimit: 10;
      }

      .cls-1, .cls-2, .cls-3, .cls-4 {
        stroke-width: 20px;
      }

      .cls-2 {
        fill: #66bc96;
      }

      .cls-3 {
        fill: #2f2f49;
      }

      .cls-4 {
        fill: #f7ffdf;
      }

      .cls-10, .cls-5 {
        fill: none;
        stroke-linecap: round;
      }

      .cls-5 {
        stroke-width: 25px;
      }

      .cls-6 {
        fill: #fff;
      }

      .cls-7 {
        fill: #333;
      }

      .cls-8 {
        fill: #1a1a1a;
      }

      .cls-9 {
        fill: #4d4d4d;
      }

      .cls-10 {
        stroke: #fff;
        stroke-width: 4px;
      }

      .cls-11 {
        fill: #b3b3b3;
      }
    </style>
  </defs>
  <title>1366fc7a-8568-422a-babb-c939b448c389</title>
  <rect class="cls-1" x="199.991" y="373.166" width="313.484" height="164.49"/>
  <rect class="cls-2" x="481.227" y="226.51" width="218.686" height="114.747"/>
  <rect class="cls-1" x="726.585" y="104.937" width="118.253" height="71.28"/>
  <rect class="cls-3" x="551.875" y="444.632" width="434.739" height="228.113"/>
  <rect class="cls-3" x="483.54" y="10" width="136.669" height="71.712"/>
  <rect class="cls-4" x="551.875" y="748.516" width="434.739" height="228.113"/>
  <rect class="cls-2" x="38.9" y="634.459" width="434.739" height="228.113"/>
  <line class="cls-5" x1="12.5" y1="1064.136" x2="1172.735" y2="1064.136"/>
  <g>
    <path class="cls-6" d="M638.183,581.11h-7.311v-7.217q-7.874,8.389-16.59,8.389-13.733,0-13.731-16.638V532.277h7.311v31.259q0,6.233,1.969,9.3t6.654,3.069q6.7,0,14.388-8.342V532.277h7.311V581.11Z"/>
    <path class="cls-6" d="M665.552,538.6a17.591,17.591,0,0,1,6.585-5.437,19.374,19.374,0,0,1,8.74-2.062,15.275,15.275,0,0,1,13.286,6.843q4.755,6.842,4.757,18,0,11.294-5.062,18.862t-13.544,7.569a16.8,16.8,0,0,1-8.506-2.273,17.26,17.26,0,0,1-6.257-6.021v7.029h-7.311V514.984h7.311V538.6Zm0,7.264V566.16a20.041,20.041,0,0,0,5.577,6.89,11.625,11.625,0,0,0,7.264,2.765q5.9,0,9.4-5.624a25.734,25.734,0,0,0,3.491-13.824q0-8.436-3.327-13.685a10.429,10.429,0,0,0-9.279-5.249Q670.942,537.432,665.552,545.868Z"/>
    <path class="cls-6" d="M753.377,581.11h-7.311v-7.217q-7.874,8.389-16.59,8.389-13.733,0-13.731-16.638V532.277h7.311v31.259q0,6.233,1.969,9.3t6.654,3.069q6.7,0,14.388-8.342V532.277h7.311V581.11Z"/>
    <path class="cls-6" d="M811.067,581.11h-7.311V549.8q0-6.513-2.086-9.443t-6.537-2.929q-6.7,0-14.388,8.342V581.11h-7.311V532.277h7.311v7.17q7.874-8.341,16.59-8.342,13.731,0,13.731,16.591V581.11Z"/>
    <path class="cls-6" d="M869.132,578.907a34.554,34.554,0,0,1-14.481,3.375q-13.075,0-13.075-13.825V538.6H832.2v-6.327h9.373V518.92H848.7v13.356h16.59V538.6H848.7v27.931a10.81,10.81,0,0,0,1.968,6.913,6.481,6.481,0,0,0,5.343,2.46,28.337,28.337,0,0,0,11.856-2.671Z"/>
    <path class="cls-6" d="M926.167,581.11h-7.311v-7.217q-7.874,8.389-16.59,8.389-13.733,0-13.731-16.638V532.277h7.311v31.259q0,6.233,1.969,9.3t6.654,3.069q6.7,0,14.388-8.342V532.277h7.311V581.11Z"/>
  </g>
  <g>
    <path class="cls-6" d="M760.415,148a2.462,2.462,0,0,1,2.5,2.5,2.594,2.594,0,0,1-.73,1.852,2.354,2.354,0,0,1-1.771.771,2.3,2.3,0,0,1-1.741-.771,2.615,2.615,0,0,1-.721-1.852,2.43,2.43,0,0,1,.711-1.792A2.382,2.382,0,0,1,760.415,148Z"/>
    <path class="cls-6" d="M785.013,148a2.462,2.462,0,0,1,2.5,2.5,2.594,2.594,0,0,1-.73,1.852,2.354,2.354,0,0,1-1.771.771,2.3,2.3,0,0,1-1.741-.771,2.615,2.615,0,0,1-.721-1.852,2.43,2.43,0,0,1,.711-1.792A2.382,2.382,0,0,1,785.013,148Z"/>
    <path class="cls-6" d="M809.611,148a2.462,2.462,0,0,1,2.5,2.5,2.594,2.594,0,0,1-.73,1.852,2.354,2.354,0,0,1-1.771.771,2.3,2.3,0,0,1-1.741-.771,2.615,2.615,0,0,1-.721-1.852,2.43,2.43,0,0,1,.711-1.792A2.382,2.382,0,0,1,809.611,148Z"/>
  </g>
  <g>
    <path class="cls-6" d="M525.644,50.5a2.462,2.462,0,0,1,2.5,2.5,2.594,2.594,0,0,1-.73,1.852,2.354,2.354,0,0,1-1.771.771,2.3,2.3,0,0,1-1.741-.771A2.615,2.615,0,0,1,523.182,53a2.43,2.43,0,0,1,.711-1.792A2.382,2.382,0,0,1,525.644,50.5Z"/>
    <path class="cls-6" d="M550.243,50.5a2.462,2.462,0,0,1,2.5,2.5,2.594,2.594,0,0,1-.73,1.852,2.354,2.354,0,0,1-1.771.771,2.3,2.3,0,0,1-1.741-.771A2.615,2.615,0,0,1,547.781,53a2.43,2.43,0,0,1,.711-1.792A2.382,2.382,0,0,1,550.243,50.5Z"/>
    <path class="cls-6" d="M574.84,50.5a2.462,2.462,0,0,1,2.5,2.5,2.594,2.594,0,0,1-.73,1.852,2.354,2.354,0,0,1-1.771.771,2.3,2.3,0,0,1-1.741-.771A2.615,2.615,0,0,1,572.379,53a2.43,2.43,0,0,1,.711-1.792A2.382,2.382,0,0,1,574.84,50.5Z"/>
  </g>
  <g>
    <path class="cls-6" d="M135.676,792.919h-9.632V750.686q0-15.312-5.681-15.312-2.9,0-6.391,5.279t-3.488,5.835v46.432h-9.57V750.686q0-15.312-5.742-15.312-2.842,0-6.329,5.279t-3.488,5.835v46.432H75.722V728.582h9.262v9.693a26.293,26.293,0,0,1,6.452-8.181,11.781,11.781,0,0,1,7.44-3.057,9.674,9.674,0,0,1,6.978,3.057,16.337,16.337,0,0,1,4.261,8.181,26.053,26.053,0,0,1,6.482-8.181,11.836,11.836,0,0,1,7.41-3.057q11.669,0,11.669,20.87v45.012Z"/>
    <path class="cls-6" d="M208.1,792.919h-9.57a37.025,37.025,0,0,1-1.174-10.373q-8.212,12.04-22.352,12.04a17.966,17.966,0,0,1-12.627-5.094,17.132,17.132,0,0,1-5.464-13.121,17.792,17.792,0,0,1,1.914-8.4,16.817,16.817,0,0,1,5.618-6.144,30.293,30.293,0,0,1,9.015-3.951,67.9,67.9,0,0,1,12.6-2.007l10.8-.864V751.92q0-16.545-15.436-16.547a35.452,35.452,0,0,0-9.231,1.574,47.444,47.444,0,0,0-9.6,3.735l-2.532-6.915q13.151-6.729,24.451-6.73,21.981,0,21.981,23.278v27.661A62.913,62.913,0,0,0,208.1,792.919ZM196.866,773.84V762.17q-13.028,1.173-17.875,2.192a20.114,20.114,0,0,0-8.4,3.8,9.057,9.057,0,0,0-3.55,7.533,8.829,8.829,0,0,0,3.025,6.977,11.27,11.27,0,0,0,7.718,2.655,19.545,19.545,0,0,0,10.188-3.057A29.97,29.97,0,0,0,196.866,773.84Z"/>
    <path class="cls-6" d="M282.135,790.758a43.99,43.99,0,0,1-18.462,3.828q-15.189,0-24.234-9.23t-9.046-24.544q0-15.312,9.107-24.543t23.926-9.231a50.679,50.679,0,0,1,18.462,3.4l-2.531,7.965a49.038,49.038,0,0,0-15.807-3.025q-10.622,0-16.826,6.854t-6.205,18.585q0,10.743,6.422,18.061a21.207,21.207,0,0,0,16.732,7.316,48.947,48.947,0,0,0,16.795-3.148Z"/>
    <path class="cls-6" d="M333.2,704.13q14.634,0,22.32,11.577t7.688,33.682q0,21.983-7.656,33.59T333.2,794.586q-14.574,0-22.259-11.577t-7.687-33.62q0-22.043,7.656-33.65T333.2,704.13Zm0,81.564q19.264,0,19.264-36.306,0-36.366-19.264-36.367-9.387,0-14.294,9.416T314,749.389q0,17.722,4.878,27.014T333.2,785.695Z"/>
    <path class="cls-6" d="M427.791,715.43a45.735,45.735,0,0,0-14.757-2.655q-7.9,0-12.874,3.612a11.947,11.947,0,0,0-4.97,10.28q0,7.9,13.028,13.893,9.631,4.446,12.75,6.174a32.064,32.064,0,0,1,6.329,4.755,23.574,23.574,0,0,1,5.155,7.132,21.3,21.3,0,0,1,1.945,9.23q0,12.721-8.552,19.728a30.83,30.83,0,0,1-20.16,7.008,41.737,41.737,0,0,1-19.7-4.445l2.1-8.706q9.94,4.507,17.35,4.507,8.644,0,13.862-4.477t5.217-12.317a14.805,14.805,0,0,0-3.4-9.849q-3.4-4.043-12.534-8.243-9.387-4.321-12.133-5.9a25.477,25.477,0,0,1-5.465-4.353,20.3,20.3,0,0,1-4.2-6.236,18.915,18.915,0,0,1-1.482-7.533q0-10.8,7.78-16.856t19.7-6.051a58.225,58.225,0,0,1,17.289,2.655Z"/>
  </g>
  <g>
    <path class="cls-6" d="M254.762,434.068H237.211v13.855H253.2v4.3H237.211v19.956h-4.929V429.77h22.48v4.3Z"/>
    <path class="cls-6" d="M292.6,441.7l-1.894,4.509a13.756,13.756,0,0,0-5.35-1.353,7.819,7.819,0,0,0-4.058,1.187,13.017,13.017,0,0,0-3.651,3.4,12.194,12.194,0,0,0-1.668,2.479v20.257h-4.658V440.861h4.658V447.2q3.757-7.093,9.738-7.093A15.805,15.805,0,0,1,292.6,441.7Z"/>
    <path class="cls-6" d="M329.989,456.669H308.5a12.691,12.691,0,0,0,3.081,8.775,9.734,9.734,0,0,0,7.559,3.456,27.46,27.46,0,0,0,8.806-1.532l0.812,3.757a23.427,23.427,0,0,1-9.678,1.863,14.808,14.808,0,0,1-11.24-4.479q-4.269-4.478-4.268-12.082,0-7.453,3.832-11.886a12.484,12.484,0,0,1,9.9-4.434,11.583,11.583,0,0,1,9.047,4.117q3.636,4.119,3.637,10.971v1.473Zm-5.109-3.817a8.838,8.838,0,0,0-2.284-6.176,6.8,6.8,0,0,0-5.109-2.51,8.142,8.142,0,0,0-6.025,2.4,9.513,9.513,0,0,0-2.66,6.281H324.88Z"/>
    <path class="cls-6" d="M366.925,456.669H345.436a12.691,12.691,0,0,0,3.081,8.775,9.734,9.734,0,0,0,7.559,3.456,27.46,27.46,0,0,0,8.806-1.532l0.812,3.757a23.427,23.427,0,0,1-9.678,1.863,14.808,14.808,0,0,1-11.24-4.479q-4.269-4.478-4.268-12.082,0-7.453,3.832-11.886a12.484,12.484,0,0,1,9.9-4.434,11.583,11.583,0,0,1,9.047,4.117q3.636,4.119,3.637,10.971v1.473Zm-5.109-3.817a8.838,8.838,0,0,0-2.284-6.176,6.8,6.8,0,0,0-5.109-2.51,8.142,8.142,0,0,0-6.025,2.4,9.513,9.513,0,0,0-2.66,6.281h16.079Z"/>
    <path class="cls-6" d="M383.486,444.917a11.283,11.283,0,0,1,4.223-3.486,12.44,12.44,0,0,1,5.605-1.322,9.8,9.8,0,0,1,8.52,4.388q3.051,4.389,3.051,11.541a21.3,21.3,0,0,1-3.246,12.1,9.985,9.985,0,0,1-8.686,4.854,10.781,10.781,0,0,1-5.455-1.458,11.076,11.076,0,0,1-4.012-3.861v4.508H378.8V429.77h4.688v15.147Zm0,4.659V462.59a12.851,12.851,0,0,0,3.576,4.418,7.462,7.462,0,0,0,4.658,1.772,6.819,6.819,0,0,0,6.026-3.606,16.507,16.507,0,0,0,2.239-8.866,16.176,16.176,0,0,0-2.134-8.775,6.689,6.689,0,0,0-5.951-3.366Q386.943,444.167,383.486,449.577Z"/>
    <path class="cls-6" d="M436.591,445.338a23.851,23.851,0,0,0-7.423-1.292,12.139,12.139,0,0,0-6.041,1.277,3.836,3.836,0,0,0-2.225,3.411,3.207,3.207,0,0,0,1.022,2.359,10.077,10.077,0,0,0,4.087,1.878l4.479,1.293a19.708,19.708,0,0,1,5.049,2.089,8.307,8.307,0,0,1,2.931,2.945,8.022,8.022,0,0,1,.977,4.012,8.172,8.172,0,0,1-3.757,7.078,16.424,16.424,0,0,1-9.558,2.6,22.68,22.68,0,0,1-9.527-1.743l0.9-4.058a19.475,19.475,0,0,0,8.445,1.863,12.317,12.317,0,0,0,6.356-1.457,4.371,4.371,0,0,0,2.449-3.862,4.093,4.093,0,0,0-1.218-2.9q-1.216-1.277-5.725-2.66-3.637-1.11-5.35-1.668a11.147,11.147,0,0,1-3.187-1.638,7.5,7.5,0,0,1,.541-12.382q3.546-2.375,9.407-2.375a31.564,31.564,0,0,1,8.415,1.293Z"/>
    <path class="cls-6" d="M476.685,472.177H472v-4.508a11.142,11.142,0,0,1-4.133,3.816,11.446,11.446,0,0,1-5.665,1.5,9.679,9.679,0,0,1-8.506-4.794q-3.126-4.793-3.126-12.157a19,19,0,0,1,3.262-11.405,10.153,10.153,0,0,1,8.641-4.523A11.342,11.342,0,0,1,472,444.917V429.77h4.688v42.407ZM472,462.59V449.577q-3.366-5.411-8.115-5.41a6.985,6.985,0,0,0-6.131,3.441,15.573,15.573,0,0,0-2.254,8.7,17.15,17.15,0,0,0,2.118,8.941,6.506,6.506,0,0,0,5.816,3.531,7.557,7.557,0,0,0,3.576-.961,11.521,11.521,0,0,0,3.4-2.886A7.371,7.371,0,0,0,472,462.59Z"/>
  </g>
  <g>
    <path class="cls-7" d="M645,884.175H636.8l-16.549-25.623H612.98v25.623h-6.556v-56.4h15.949q8.035,0,12.691,3.9t4.657,10.853a13.8,13.8,0,0,1-3.4,9.174,17.086,17.086,0,0,1-9.354,5.457ZM612.98,852.836h8.274a12.386,12.386,0,0,0,8.435-2.818,9.007,9.007,0,0,0,3.237-7.095q0-9.434-11.512-9.434H612.98v19.347Z"/>
    <path class="cls-7" d="M689.129,863.549H660.548a16.887,16.887,0,0,0,4.1,11.672,12.952,12.952,0,0,0,10.054,4.6,36.534,36.534,0,0,0,11.712-2.038l1.079,5a31.157,31.157,0,0,1-12.871,2.479q-9.274,0-14.95-5.956t-5.676-16.069q0-9.913,5.1-15.809a16.605,16.605,0,0,1,13.172-5.9A15.4,15.4,0,0,1,684.292,847q4.837,5.477,4.837,14.59v1.959Zm-6.795-5.077a11.758,11.758,0,0,0-3.038-8.214,9.044,9.044,0,0,0-6.8-3.338,10.834,10.834,0,0,0-8.015,3.2,12.657,12.657,0,0,0-3.537,8.354h21.386Z"/>
    <path class="cls-7" d="M736.857,884.175h-6.236v-6a14.818,14.818,0,0,1-5.5,5.077,15.231,15.231,0,0,1-7.535,2q-7.156,0-11.312-6.376t-4.157-16.169q0-9.152,4.337-15.17a13.507,13.507,0,0,1,11.493-6.016,15.081,15.081,0,0,1,12.671,6.4V827.773h6.236v56.4Zm-6.236-12.751V854.116q-4.477-7.2-10.793-7.2a9.289,9.289,0,0,0-8.154,4.577,20.716,20.716,0,0,0-3,11.572q0,7.2,2.818,11.892t7.734,4.7a10.046,10.046,0,0,0,4.757-1.279,15.291,15.291,0,0,0,4.518-3.838Q730.621,871.984,730.621,871.424Z"/>
    <path class="cls-7" d="M835.35,884.175h-6.556V856.194H809.488v27.981h-6.556v-56.4h6.556v22.665h19.307V827.773h6.556v56.4Z"/>
    <path class="cls-7" d="M885.437,884.175h-6.2a23.976,23.976,0,0,1-.76-6.716,16.64,16.64,0,0,1-14.47,7.795,11.626,11.626,0,0,1-8.175-3.3,11.089,11.089,0,0,1-3.538-8.494,11.521,11.521,0,0,1,1.239-5.437,10.9,10.9,0,0,1,3.638-3.978,19.605,19.605,0,0,1,5.836-2.558,43.993,43.993,0,0,1,8.155-1.3l7-.56v-2q0-10.712-9.993-10.713a22.953,22.953,0,0,0-5.977,1.02,30.674,30.674,0,0,0-6.216,2.418l-1.639-4.477q8.514-4.356,15.829-4.357,14.231,0,14.23,15.07V874.5A40.737,40.737,0,0,0,885.437,884.175Zm-7.275-12.352v-7.555q-8.435.759-11.572,1.419a13.018,13.018,0,0,0-5.437,2.458,5.865,5.865,0,0,0-2.3,4.877,5.719,5.719,0,0,0,1.959,4.517,7.3,7.3,0,0,0,5,1.719,12.656,12.656,0,0,0,6.6-1.979A19.4,19.4,0,0,0,878.162,871.824Z"/>
    <path class="cls-7" d="M933.925,882.3a29.478,29.478,0,0,1-12.352,2.878q-11.153,0-11.153-11.792V847.919h-7.994v-5.4h7.994V831.131H916.5v11.392h14.15v5.4H916.5v23.824a9.218,9.218,0,0,0,1.679,5.9,5.527,5.527,0,0,0,4.558,2.1,24.155,24.155,0,0,0,10.112-2.278Z"/>
  </g>
  <g>
    <path class="cls-7" d="M524.805,273.149H512.979v9.335h10.773v2.9H512.979v13.446h-3.321V270.253h15.147v2.9Z"/>
    <path class="cls-7" d="M550.6,288.377H536.126a8.554,8.554,0,0,0,2.075,5.913,6.561,6.561,0,0,0,5.093,2.329,18.489,18.489,0,0,0,5.934-1.033l0.547,2.531a15.788,15.788,0,0,1-6.521,1.256,9.977,9.977,0,0,1-7.573-3.018,11.31,11.31,0,0,1-2.876-8.14,11.821,11.821,0,0,1,2.582-8.009,8.412,8.412,0,0,1,6.672-2.987,7.8,7.8,0,0,1,6.1,2.774,10.763,10.763,0,0,1,2.45,7.391v0.992Zm-3.442-2.571a5.958,5.958,0,0,0-1.539-4.162,4.582,4.582,0,0,0-3.442-1.691,5.486,5.486,0,0,0-4.061,1.62,6.414,6.414,0,0,0-1.792,4.232h10.834Z"/>
    <path class="cls-7" d="M574.782,298.826h-3.159v-3.038a7.5,7.5,0,0,1-2.784,2.572,7.714,7.714,0,0,1-3.816,1.013,6.522,6.522,0,0,1-5.731-3.23,14.716,14.716,0,0,1-2.105-8.191,12.8,12.8,0,0,1,2.2-7.685,6.839,6.839,0,0,1,5.821-3.048,7.64,7.64,0,0,1,6.419,3.24V270.253h3.159v28.573Zm-3.159-6.46V283.6q-2.268-3.645-5.467-3.645a4.7,4.7,0,0,0-4.131,2.319,10.494,10.494,0,0,0-1.52,5.862,11.56,11.56,0,0,0,1.428,6.024,4.383,4.383,0,0,0,3.919,2.379,5.085,5.085,0,0,0,2.409-.648,7.734,7.734,0,0,0,2.288-1.944A4.946,4.946,0,0,0,571.623,292.366Z"/>
    <path class="cls-7" d="M591.57,277.219a8.609,8.609,0,0,1,6.926,3.038,11.963,11.963,0,0,1,2.571,8,12.1,12.1,0,0,1-2.571,8.059,9.393,9.393,0,0,1-13.861.01,12.124,12.124,0,0,1-2.562-8.069,11.95,11.95,0,0,1,2.571-8.009A8.623,8.623,0,0,1,591.57,277.219Zm0,19.4a5.215,5.215,0,0,0,4.536-2.43,11.526,11.526,0,0,0,.02-11.887,5.614,5.614,0,0,0-9.112-.03,11.758,11.758,0,0,0,.021,11.947A5.2,5.2,0,0,0,591.57,296.619Z"/>
    <path class="cls-7" d="M624.962,278.292l-1.275,3.038a9.283,9.283,0,0,0-3.6-.911,5.267,5.267,0,0,0-2.734.8,8.768,8.768,0,0,0-2.46,2.288,8.225,8.225,0,0,0-1.124,1.671v13.648h-3.139v-21.1h3.139V282q2.531-4.779,6.561-4.779A10.649,10.649,0,0,1,624.962,278.292Z"/>
    <path class="cls-7" d="M650.051,298.826h-3.139a12.18,12.18,0,0,1-.385-3.4,8.43,8.43,0,0,1-7.33,3.949,5.893,5.893,0,0,1-4.142-1.671,5.619,5.619,0,0,1-1.792-4.3,5.832,5.832,0,0,1,.628-2.754,5.516,5.516,0,0,1,1.843-2.015,9.922,9.922,0,0,1,2.956-1.3,22.258,22.258,0,0,1,4.132-.658l3.543-.284V285.38q0-5.427-5.062-5.427a11.635,11.635,0,0,0-3.027.517,15.537,15.537,0,0,0-3.148,1.225l-0.83-2.268a17.747,17.747,0,0,1,8.019-2.208q7.208,0,7.209,7.634v9.072A20.673,20.673,0,0,0,650.051,298.826Zm-3.686-6.257v-3.827q-4.273.385-5.862,0.719a6.6,6.6,0,0,0-2.754,1.246,2.97,2.97,0,0,0-1.164,2.47,2.9,2.9,0,0,0,.992,2.289,3.7,3.7,0,0,0,2.531.871,6.407,6.407,0,0,0,3.341-1A9.811,9.811,0,0,0,646.366,292.569Z"/>
  </g>
  <rect x="18.5" y="1125.633" width="227.801" height="155.278" rx="23.17" ry="23.17"/>
  <g>
    <path class="cls-6" d="M76.687,1169.767L48.813,1186.5v-5.479l22.359-13.3-22.359-13.639v-5.366l27.874,16.582v4.473Z"/>
    <path class="cls-6" d="M130.5,1211.13H84.7v-4.882h45.8v4.882Z"/>
  </g>
  <g>
    <polygon class="cls-8" points="629.628 1145.976 544.068 1174.925 458.508 1145.976 544.068 1117.066 629.628 1145.976"/>
    <polygon class="cls-7" points="629.628 1243.497 544.068 1280.911 544.068 1174.925 629.628 1145.976 629.628 1243.497"/>
    <polygon class="cls-9" points="458.508 1243.497 544.068 1280.911 544.068 1174.925 458.508 1145.976 458.508 1243.497"/>
  </g>
  <path d="M348.568,1272.518a66.507,66.507,0,0,1-13.4-131.649,5.141,5.141,0,0,1,6.145,4.5,5.3,5.3,0,0,1-4.288,5.621,56.217,56.217,0,1,0,23.022-.012,5.305,5.305,0,0,1-4.3-5.616,5.145,5.145,0,0,1,6.141-4.5A66.507,66.507,0,0,1,348.568,1272.518Z"/>
  <path d="M348.568,1203.276a5.141,5.141,0,0,1-5.142-5.142v-75.927a5.142,5.142,0,0,1,10.284,0v75.927A5.141,5.141,0,0,1,348.568,1203.276Z"/>
  <polygon points="776.568 1264.578 677.068 1264.578 677.068 1125.578 746.072 1125.578 746.818 1151.578 776.568 1151.828 776.568 1264.578"/>
  <line class="cls-10" x1="690.651" y1="1160.911" x2="762.985" y2="1160.911"/>
  <line class="cls-10" x1="690.651" y1="1179.859" x2="762.985" y2="1179.859"/>
  <line class="cls-10" x1="690.651" y1="1198.807" x2="762.985" y2="1198.807"/>
  <line class="cls-10" x1="690.651" y1="1217.755" x2="762.985" y2="1217.755"/>
  <line class="cls-10" x1="690.651" y1="1236.703" x2="762.985" y2="1236.703"/>
  <polygon class="cls-9" points="746.072 1125.578 776.568 1151.828 746.818 1151.578 746.072 1125.578"/>
  <polygon class="cls-11" points="968.735 1255.244 816.068 1255.244 816.068 1136.578 823.401 1122.578 857.068 1122.578 870.735 1136.578 985.068 1136.578 968.735 1255.244"/>
  <polygon class="cls-7" points="968.735 1255.244 816.068 1255.244 829.735 1141.911 992.735 1141.911 968.735 1255.244"/>
  <rect x="1020.068" y="1093.578" width="140" height="192.667" rx="43.576" ry="43.576"/>
  <path class="cls-6" d="M1110.949,1237.727v7.31h-39.61v-7.31a3.276,3.276,0,0,1,2.551-3.23c1.529-.34,9.859-1.87,9.859-1.87v-61.369s-8.33-1.53-9.859-1.87a3.276,3.276,0,0,1-2.551-3.229v-7.141h27.37v73.609s8.16,1.53,9.689,1.87A3.276,3.276,0,0,1,1110.949,1237.727Zm-29.58-101.659a8.82,8.82,0,0,1-.85-4.08,9.515,9.515,0,0,1,.85-4.25,13.107,13.107,0,0,1,2.38-3.57,12.239,12.239,0,0,1,3.4-2.38,10.219,10.219,0,0,1,8.159,0,12.224,12.224,0,0,1,3.4,2.38,13.107,13.107,0,0,1,2.38,3.57,9.752,9.752,0,0,1,1.021,4.25,9.058,9.058,0,0,1-1.021,4.08,11.947,11.947,0,0,1-5.78,5.78,10.219,10.219,0,0,1-8.159,0A11.947,11.947,0,0,1,1081.369,1136.068Z"/>
</svg>
