<svg xmlns="http://www.w3.org/2000/svg" viewBox="0 0 673.594 801.552">
  <defs>
    <style>
      .cls-1 {
        isolation: isolate;
      }

      .cls-2 {
        fill: #4d4d4d;
      }

      .cls-3 {
        fill: #1a1a1a;
      }

      .cls-4 {
        fill: #333;
      }

      .cls-5 {
        fill: #22b573;
      }

      .cls-6, .cls-7 {
        fill: #29abe2;
        mix-blend-mode: multiply;
      }

      .cls-6 {
        opacity: 0.6;
      }

      .cls-7 {
        opacity: 0.32;
      }

      .cls-8 {
        fill: gray;
      }

      .cls-9 {
        fill: #999;
      }
    </style>
  </defs>
  <title>9baafa10-c9bd-446f-9ce0-4f5e1c7e1512</title>
  <g class="cls-1">
    <g id="Layer_1" data-name="Layer 1">
      <polygon class="cls-2" points="355.795 296.88 257 354.273 257 446.976 356.03 390.384 355.795 296.88"/>
      <polygon class="cls-2" points="464.795 232.88 366 290.273 366 382.976 465.03 326.384 464.795 232.88"/>
      <polygon class="cls-2" points="619 143.804 475 227.273 475 319.976 619 237.891 619 143.804"/>
      <polygon class="cls-2" points="355.795 399.88 257 457.273 257 549.976 356.03 493.384 355.795 399.88"/>
      <polygon class="cls-2" points="464.795 335.88 366 393.273 366 485.976 465.03 429.384 464.795 335.88"/>
      <polygon class="cls-2" points="619 246.804 475 330.273 475 422.976 619 340.891 619 246.804"/>
      <polygon class="cls-2" points="355.795 503.88 257 561.273 257 653.976 356.03 597.384 355.795 503.88"/>
      <polygon class="cls-2" points="464.795 439.88 366 497.273 366 589.976 465.03 533.384 464.795 439.88"/>
      <polygon class="cls-2" points="619 350.804 475 434.273 475 526.976 619 444.891 619 350.804"/>
      <polygon class="cls-2" points="355.795 580.88 257 638.273 257 730.976 356.03 674.384 355.795 580.88"/>
      <polygon class="cls-2" points="464.795 516.88 366 574.273 366 666.976 465.03 610.384 464.795 516.88"/>
      <polygon class="cls-2" points="619 427.804 475 511.273 475 603.976 619 521.891 619 427.804"/>
      <polygon class="cls-3" points="208.544 311.746 208.157 324.746 673 54.998 673 41.998 208.544 311.746"/>
      <polygon class="cls-4" points="609 155.873 485 227.905 485 307.907 609 237.069 609 155.873"/>
      <polygon class="cls-4" points="607 259.873 483 331.905 483 411.907 607 341.069 607 259.873"/>
      <polygon class="cls-4" points="0.128 260.987 208.603 311.746 673.594 41.998 495.103 0 0.128 260.987"/>
      <polygon class="cls-4" points="0 273.974 0 748.974 208 801.552 208 324.746 0 273.974"/>
      <polygon class="cls-4" points="458.83 241.974 372 292.412 372 373.882 459.033 324.148 458.83 241.974"/>
      <polygon class="cls-4" points="349.83 305.974 263 356.412 263 437.882 350.033 388.148 349.83 305.974"/>
      <polygon class="cls-4" points="349.83 408.974 263 459.412 263 540.882 350.033 491.148 349.83 408.974"/>
      <polygon class="cls-4" points="349.83 512.974 263 563.412 263 644.882 350.033 595.148 349.83 512.974"/>
      <polygon class="cls-4" points="349.83 585.974 263 636.412 263 717.882 350.033 668.148 349.83 585.974"/>
      <polygon class="cls-4" points="458.83 448.974 372 499.412 372 580.882 459.033 531.148 458.83 448.974"/>
      <polygon class="cls-4" points="458.83 521.974 372 572.412 372 653.882 459.033 604.148 458.83 521.974"/>
      <polygon class="cls-4" points="610 364.037 480 439.439 480 523.184 610 449.032 610 364.037"/>
      <polygon class="cls-4" points="610 433.596 480 508.998 480 592.743 610 518.591 610 433.596"/>
      <polygon class="cls-4" points="458.83 344.974 372 395.412 372 476.882 459.033 427.148 458.83 344.974"/>
      <g>
        <polygon class="cls-5" points="267.362 367.284 267.362 361.502 278.491 355.033 278.518 360.8 267.362 367.284"/>
        <polygon class="cls-5" points="267.362 378.88 267.362 373.097 278.491 366.629 278.518 372.396 267.362 378.88"/>
        <polygon class="cls-5" points="267.362 390.475 267.362 384.693 278.491 378.224 278.518 383.991 267.362 390.475"/>
        <polygon class="cls-5" points="267.362 402.07 267.362 396.288 278.491 389.819 278.518 395.586 267.362 402.07"/>
        <polygon class="cls-5" points="267.362 413.666 267.362 407.884 278.491 401.415 278.518 407.182 267.362 413.666"/>
        <polygon class="cls-5" points="267.362 425.261 267.362 419.479 278.491 413.01 278.518 418.777 267.362 425.261"/>
      </g>
      <g>
        <polygon class="cls-5" points="267.362 468.999 267.362 463.217 278.491 456.748 278.518 462.515 267.362 468.999"/>
        <polygon class="cls-5" points="267.362 480.594 267.362 474.812 278.491 468.343 278.518 474.11 267.362 480.594"/>
        <polygon class="cls-5" points="267.362 492.19 267.362 486.407 278.491 479.939 278.518 485.706 267.362 492.19"/>
        <polygon class="cls-5" points="267.362 503.785 267.362 498.003 278.491 491.534 278.518 497.301 267.362 503.785"/>
        <polygon class="cls-5" points="267.362 515.381 267.362 509.598 278.491 503.13 278.518 508.897 267.362 515.381"/>
        <polygon class="cls-5" points="267.362 526.976 267.362 521.194 278.491 514.725 278.518 520.492 267.362 526.976"/>
      </g>
      <g>
        <polygon class="cls-5" points="267.362 573.782 267.362 568 278.491 561.531 278.518 567.298 267.362 573.782"/>
        <polygon class="cls-5" points="267.362 585.377 267.362 579.595 278.491 573.126 278.518 578.893 267.362 585.377"/>
        <polygon class="cls-5" points="267.362 596.973 267.362 591.19 278.491 584.722 278.518 590.489 267.362 596.973"/>
        <polygon class="cls-5" points="267.362 608.568 267.362 602.786 278.491 596.317 278.518 602.084 267.362 608.568"/>
        <polygon class="cls-5" points="267.362 620.164 267.362 614.381 278.491 607.913 278.518 613.68 267.362 620.164"/>
        <polygon class="cls-5" points="267.362 631.759 267.362 625.977 278.491 619.508 278.518 625.275 267.362 631.759"/>
      </g>
      <g>
        <polygon class="cls-5" points="267.362 644.113 267.362 638.331 278.491 631.862 278.518 637.629 267.362 644.113"/>
        <polygon class="cls-5" points="267.362 655.708 267.362 649.926 278.491 643.457 278.518 649.224 267.362 655.708"/>
        <polygon class="cls-5" points="267.362 667.304 267.362 661.522 278.491 655.053 278.518 660.82 267.362 667.304"/>
        <polygon class="cls-5" points="267.362 678.899 267.362 673.117 278.491 666.648 278.518 672.415 267.362 678.899"/>
        <polygon class="cls-5" points="267.362 690.495 267.362 684.712 278.491 678.244 278.518 684.011 267.362 690.495"/>
        <polygon class="cls-5" points="267.362 702.09 267.362 696.308 278.491 689.839 278.518 695.606 267.362 702.09"/>
      </g>
      <g>
        <polygon class="cls-5" points="378.196 509.628 378.196 503.846 389.325 497.377 389.351 503.144 378.196 509.628"/>
        <polygon class="cls-5" points="378.196 521.223 378.196 515.441 389.325 508.972 389.351 514.739 378.196 521.223"/>
        <polygon class="cls-5" points="378.196 532.819 378.196 527.036 389.325 520.568 389.351 526.335 378.196 532.819"/>
        <polygon class="cls-5" points="378.196 544.414 378.196 538.632 389.325 532.163 389.351 537.93 378.196 544.414"/>
        <polygon class="cls-5" points="378.196 556.009 378.196 550.227 389.325 543.759 389.351 549.526 378.196 556.009"/>
        <polygon class="cls-5" points="378.196 567.605 378.196 561.823 389.325 555.354 389.351 561.121 378.196 567.605"/>
      </g>
      <g>
        <polygon class="cls-5" points="378.196 579.959 378.196 574.177 389.325 567.708 389.351 573.475 378.196 579.959"/>
        <polygon class="cls-5" points="378.196 591.554 378.196 585.772 389.325 579.303 389.351 585.07 378.196 591.554"/>
        <polygon class="cls-5" points="378.196 603.15 378.196 597.367 389.325 590.899 389.351 596.666 378.196 603.15"/>
        <polygon class="cls-5" points="378.196 614.745 378.196 608.963 389.325 602.494 389.351 608.261 378.196 614.745"/>
        <polygon class="cls-5" points="378.196 626.341 378.196 620.558 389.325 614.09 389.351 619.857 378.196 626.341"/>
        <polygon class="cls-5" points="378.196 637.936 378.196 632.154 389.325 625.685 389.351 631.452 378.196 637.936"/>
      </g>
      <g>
        <polygon class="cls-5" points="492.029 445.851 492.029 440.069 503.158 433.6 503.184 439.367 492.029 445.851"/>
        <polygon class="cls-5" points="492.029 457.447 492.029 451.664 503.158 445.196 503.184 450.963 492.029 457.447"/>
        <polygon class="cls-5" points="492.029 469.042 492.029 463.26 503.158 456.791 503.184 462.558 492.029 469.042"/>
        <polygon class="cls-5" points="492.029 480.638 492.029 474.855 503.158 468.387 503.184 474.154 492.029 480.638"/>
        <polygon class="cls-5" points="492.029 492.233 492.029 486.451 503.158 479.982 503.184 485.749 492.029 492.233"/>
        <polygon class="cls-5" points="492.029 503.828 492.029 498.046 503.158 491.577 503.184 497.344 492.029 503.828"/>
      </g>
      <g>
        <polygon class="cls-5" points="557.529 405.728 557.529 399.946 568.658 393.477 568.684 399.244 557.529 405.728"/>
        <polygon class="cls-5" points="557.529 417.324 557.529 411.541 568.658 405.073 568.684 410.84 557.529 417.324"/>
        <polygon class="cls-5" points="557.529 428.919 557.529 423.137 568.658 416.668 568.684 422.435 557.529 428.919"/>
        <polygon class="cls-5" points="557.529 440.514 557.529 434.732 568.658 428.263 568.684 434.03 557.529 440.514"/>
        <polygon class="cls-5" points="557.529 452.11 557.529 446.328 568.658 439.859 568.684 445.626 557.529 452.11"/>
        <polygon class="cls-5" points="557.529 463.705 557.529 457.923 568.658 451.454 568.684 457.221 557.529 463.705"/>
      </g>
      <g>
        <polygon class="cls-5" points="492.029 516.182 492.029 510.4 503.158 503.931 503.184 509.698 492.029 516.182"/>
        <polygon class="cls-5" points="492.029 527.778 492.029 521.996 503.158 515.527 503.184 521.294 492.029 527.778"/>
        <polygon class="cls-5" points="492.029 539.373 492.029 533.591 503.158 527.122 503.184 532.889 492.029 539.373"/>
        <polygon class="cls-5" points="492.029 550.969 492.029 545.186 503.158 538.718 503.184 544.485 492.029 550.969"/>
        <polygon class="cls-5" points="492.029 562.564 492.029 556.782 503.158 550.313 503.184 556.08 492.029 562.564"/>
        <polygon class="cls-5" points="492.029 574.159 492.029 568.377 503.158 561.909 503.184 567.676 492.029 574.159"/>
      </g>
      <g>
        <polygon class="cls-5" points="378.196 404.941 378.196 399.159 389.325 392.69 389.351 398.457 378.196 404.941"/>
        <polygon class="cls-5" points="378.196 416.537 378.196 410.754 389.325 404.286 389.351 410.053 378.196 416.537"/>
        <polygon class="cls-5" points="378.196 428.132 378.196 422.35 389.325 415.881 389.351 421.648 378.196 428.132"/>
        <polygon class="cls-5" points="378.196 439.727 378.196 433.945 389.325 427.477 389.351 433.244 378.196 439.727"/>
        <polygon class="cls-5" points="378.196 451.323 378.196 445.541 389.325 439.072 389.351 444.839 378.196 451.323"/>
        <polygon class="cls-5" points="378.196 462.918 378.196 457.136 389.325 450.667 389.351 456.434 378.196 462.918"/>
      </g>
      <g>
        <polygon class="cls-5" points="378.196 303.182 378.196 297.399 389.325 290.931 389.351 296.698 378.196 303.182"/>
        <polygon class="cls-5" points="378.196 314.777 378.196 308.995 389.325 302.526 389.351 308.293 378.196 314.777"/>
        <polygon class="cls-5" points="378.196 326.372 378.196 320.59 389.325 314.121 389.351 319.888 378.196 326.372"/>
        <polygon class="cls-5" points="378.196 337.968 378.196 332.186 389.325 325.717 389.351 331.484 378.196 337.968"/>
        <polygon class="cls-5" points="378.196 349.563 378.196 343.781 389.325 337.312 389.351 343.079 378.196 349.563"/>
        <polygon class="cls-5" points="378.196 361.159 378.196 355.376 389.325 348.908 389.351 354.675 378.196 361.159"/>
      </g>
      <g>
        <polygon class="cls-5" points="492.029 237.01 492.029 231.228 503.158 224.759 503.184 230.526 492.029 237.01"/>
        <polygon class="cls-5" points="492.029 248.605 492.029 242.823 503.158 236.354 503.184 242.121 492.029 248.605"/>
        <polygon class="cls-5" points="492.029 260.201 492.029 254.419 503.158 247.95 503.184 253.717 492.029 260.201"/>
        <polygon class="cls-5" points="492.029 271.796 492.029 266.014 503.158 259.545 503.184 265.312 492.029 271.796"/>
        <polygon class="cls-5" points="492.029 283.392 492.029 277.609 503.158 271.141 503.184 276.908 492.029 283.392"/>
        <polygon class="cls-5" points="492.029 294.987 492.029 289.205 503.158 282.736 503.184 288.503 492.029 294.987"/>
      </g>
      <g>
        <polygon class="cls-5" points="557.529 200.168 557.529 194.386 568.658 187.917 568.684 193.684 557.529 200.168"/>
        <polygon class="cls-5" points="557.529 211.764 557.529 205.981 568.658 199.513 568.684 205.28 557.529 211.764"/>
        <polygon class="cls-5" points="557.529 223.359 557.529 217.577 568.658 211.108 568.684 216.875 557.529 223.359"/>
        <polygon class="cls-5" points="557.529 234.954 557.529 229.172 568.658 222.703 568.684 228.47 557.529 234.954"/>
        <polygon class="cls-5" points="557.529 246.55 557.529 240.768 568.658 234.299 568.684 240.066 557.529 246.55"/>
        <polygon class="cls-5" points="557.529 258.145 557.529 252.363 568.658 245.894 568.684 251.661 557.529 258.145"/>
      </g>
      <g>
        <polygon class="cls-5" points="557.529 305.725 557.529 299.942 568.658 293.474 568.684 299.241 557.529 305.725"/>
        <polygon class="cls-5" points="557.529 317.32 557.529 311.538 568.658 305.069 568.684 310.836 557.529 317.32"/>
        <polygon class="cls-5" points="557.529 328.915 557.529 323.133 568.658 316.664 568.684 322.431 557.529 328.915"/>
        <polygon class="cls-5" points="557.529 340.511 557.529 334.729 568.658 328.26 568.684 334.027 557.529 340.511"/>
        <polygon class="cls-5" points="557.529 352.106 557.529 346.324 568.658 339.855 568.684 345.622 557.529 352.106"/>
        <polygon class="cls-5" points="557.529 363.702 557.529 357.919 568.658 351.451 568.684 357.218 557.529 363.702"/>
      </g>
      <g>
        <polygon class="cls-5" points="492.029 340.839 492.029 335.056 503.158 328.588 503.184 334.355 492.029 340.839"/>
        <polygon class="cls-5" points="492.029 352.434 492.029 346.652 503.158 340.183 503.184 345.95 492.029 352.434"/>
        <polygon class="cls-5" points="492.029 364.029 492.029 358.247 503.158 351.778 503.184 357.545 492.029 364.029"/>
        <polygon class="cls-5" points="492.029 375.625 492.029 369.843 503.158 363.374 503.184 369.141 492.029 375.625"/>
        <polygon class="cls-5" points="492.029 387.22 492.029 381.438 503.158 374.969 503.184 380.736 492.029 387.22"/>
        <polygon class="cls-5" points="492.029 398.816 492.029 393.033 503.158 386.565 503.184 392.332 492.029 398.816"/>
      </g>
      <polygon class="cls-6" points="640 107.44 241 339.273 241 749.742 640 522.491 640 107.44"/>
      <polyline class="cls-7" points="556.566 155.953 241 339.273 241 749.742 457.504 626.448"/>
      <polygon class="cls-8" points="673.594 54.998 640.118 107.44 241.118 339.273 208.118 324.746 673.594 54.998"/>
      <polygon class="cls-8" points="241 749.856 208 801.552 208 324.974 241 339.273 241 749.856"/>
      <polygon class="cls-9" points="673 54.974 673 537.974 208.059 801.552 241.03 749.856 640 522.491 640 106.974 673 54.974"/>
      <polygon class="cls-3" points="0.128 260.987 0.118 273.974 208.118 324.974 208.603 311.746 0.128 260.987"/>
    </g>
  </g>
</svg>
