<svg id="Layer_1" data-name="Layer 1" xmlns="http://www.w3.org/2000/svg" viewBox="0 0 450 116.113">
  <defs>
    <style>
      .cls-1 {
        fill: #fff;
      }
    </style>
  </defs>
  <title>ba9c439d-393f-4949-b002-b7c779ba2dde</title>
  <g>
    <g>
      <path class="cls-1" d="M424.416,91.156H389.729c1.059,10.047,5.817,12.8,12.691,12.8,4.546,0,8.564-1.588,13.43-4.971l6.874,9.3a34.515,34.515,0,0,1-21.89,7.826c-18.718,0-28.236-12.055-28.236-29.609,0-16.815,9.2-30.14,26.227-30.14,16.073,0,25.909,10.575,25.909,28.765A55.928,55.928,0,0,1,424.416,91.156ZM408.343,80.369c-0.106-7.611-2.433-12.9-9.095-12.9-5.6,0-8.777,3.49-9.623,13.641h18.718v-0.74Z"/>
      <path class="cls-1" d="M450,106.49a9.57,9.57,0,1,1-9.518-9.518A9.567,9.567,0,0,1,450,106.49Z"/>
    </g>
    <path class="cls-1" d="M76.7,73.285v41.031H59.99V76.141c0-5.922-2.009-7.508-5.287-7.508-3.7,0-6.768,2.643-9.728,7.3v38.387H28.267V58.162H42.859l1.163,6.664c4.759-5.5,10.151-8.462,17.132-8.462C70.882,56.364,76.7,62.605,76.7,73.285Z"/>
    <path class="cls-1" d="M119.559,111.672a27.812,27.812,0,0,1-15.228,4.441c-12.373-.105-18.4-7.086-18.4-20.3V46l16.708-1.9V58.162h12.9l-1.8,11.633h-11.1V95.6c0,5.393,1.8,7.3,5.287,7.3a11.1,11.1,0,0,0,6.027-1.9Z"/>
    <path class="cls-1" d="M174.214,91.156H139.528c1.058,10.047,5.816,12.8,12.69,12.8,4.547,0,8.565-1.588,13.43-4.971l6.875,9.3a34.518,34.518,0,0,1-21.891,7.826c-18.718,0-28.236-12.055-28.236-29.609,0-16.815,9.2-30.14,26.228-30.14,16.072,0,25.908,10.575,25.908,28.765A55.923,55.923,0,0,1,174.214,91.156ZM158.141,80.369c-0.105-7.611-2.432-12.9-9.094-12.9-5.605,0-8.777,3.49-9.623,13.641h18.717v-0.74Z"/>
    <path class="cls-1" d="M228.718,63.24l-7.191,9.939c-3.6-2.75-6.874-4.019-10.681-4.019-7.19,0-11.315,4.865-11.315,17.449,0,12.479,4.441,16.285,11.1,16.285,4.017,0,6.768-1.268,10.785-3.807l7.3,10.363a29.208,29.208,0,0,1-18.929,6.662c-17.237,0-27.813-11.631-27.813-29.4,0-17.871,10.682-30.351,27.5-30.351A28.222,28.222,0,0,1,228.718,63.24Z"/>
    <path class="cls-1" d="M269.787,111.672a27.809,27.809,0,0,1-15.228,4.441c-12.371-.105-18.4-7.086-18.4-20.3V46l16.708-1.9V58.162h12.9l-1.8,11.633h-11.1V95.6c0,5.393,1.8,7.3,5.286,7.3a11.1,11.1,0,0,0,6.026-1.9Z"/>
    <path class="cls-1" d="M324.455,114.316H309.967l-0.74-7.086a19.434,19.434,0,0,1-17.024,8.883c-10.47,0-15.651-6.767-15.651-17.66V58.162h16.708V96.338c0,5.711,1.9,7.4,5.393,7.4s6.663-2.326,9.095-6.558V58.162h16.709v56.154Z"/>
    <path class="cls-1" d="M370.488,57.316L367.846,73.5a20.181,20.181,0,0,0-5.077-.74c-6.873,0-9.835,5.074-11.632,13.535v28.023H334.429V58.162h14.593L350.4,68.949c2.538-7.721,8.037-12.373,14.488-12.373A18.96,18.96,0,0,1,370.488,57.316Z"/>
    <path class="cls-1" d="M9.834,59.7a22.651,22.651,0,0,1-8.246-1.541h0v56.154H18.295V58.162H18.133A22.882,22.882,0,0,1,9.834,59.7Z"/>
    <path class="cls-1" d="M34.525,0C25.8,0,19.774,6.188,19.774,14.276S15.65,28.553,9.834,28.553,0,32.677,0,38.069s4.018,9.518,9.834,9.518,9.94-4.123,9.94-9.518,6.025-9.517,14.751-9.517,14.911-6.185,14.911-14.276S43.249,0,34.525,0Z"/>
    <path class="cls-1" d="M447.621,38.17a7.139,7.139,0,0,1-14.277,0A7.139,7.139,0,1,1,447.621,38.17Zm-1.827,0a5.317,5.317,0,1,0-10.62,0A5.314,5.314,0,1,0,445.794,38.17Zm-3.98.459,1.989,3.118h-2.015l-1.615-2.8h-0.591v2.8h-1.748v-7.5h2.179c2.311,0,3.441.751,3.441,2.311A2.18,2.18,0,0,1,441.813,38.629Zm-2.231-1.077h0.779a1.074,1.074,0,0,0,1.317-1.022c0-.671-0.456-0.967-1.344-0.967h-0.753v1.989Z"/>
  </g>
</svg>
