<svg xmlns="http://www.w3.org/2000/svg" viewBox="0 0 806.536 408.535">
  <defs>
    <style>
      .cls-1 {
        isolation: isolate;
      }

      .cls-2 {
        fill: #1a1a1a;
      }

      .cls-10, .cls-3 {
        fill: #4d4d4d;
      }

      .cls-4 {
        fill: #333;
      }

      .cls-5 {
        fill: #f15a24;
      }

      .cls-6 {
        fill: #29abe2;
      }

      .cls-7 {
        fill: #d9e021;
      }

      .cls-8 {
        fill: #fff;
      }

      .cls-9 {
        fill: #666;
      }

      .cls-10 {
        opacity: 0.32;
        mix-blend-mode: multiply;
      }

      .cls-11 {
        fill: #fbb795;
      }

      .cls-12 {
        fill: #8c6239;
      }
    </style>
  </defs>
  <title>a6833dd7-10bb-45b2-9b32-ecaa9f931b11</title>
  <g class="cls-1">
    <g id="Layer_1" data-name="Layer 1">
      <g>
        <rect class="cls-2" x="306.237" width="500.299" height="285.883"/>
        <rect class="cls-3" x="322.839" y="15.742" width="467.096" height="254.4"/>
        <polygon class="cls-4" points="611.849 364.015 111.55 364.015 306.237 285.883 806.536 285.883 611.849 364.015"/>
        <rect class="cls-2" x="111.55" y="364.015" width="499.407" height="18.867"/>
        <polygon class="cls-2" points="805.536 286.081 805.536 299.458 610.536 382.881 610.536 363.668 805.536 286.081"/>
        <rect class="cls-5" x="354.858" y="77.188" width="320.816" height="10.764"/>
        <rect class="cls-6" x="388.793" y="96.274" width="119.41" height="10.764"/>
        <rect class="cls-6" x="336.229" y="77.188" width="10.764" height="10.764"/>
        <rect class="cls-6" x="336.229" y="96.274" width="10.764" height="10.764"/>
        <rect class="cls-6" x="336.229" y="115.36" width="10.764" height="10.764"/>
        <rect class="cls-6" x="336.229" y="134.446" width="10.764" height="10.764"/>
        <rect class="cls-6" x="336.229" y="153.532" width="10.764" height="10.764"/>
        <rect class="cls-6" x="336.229" y="172.618" width="10.764" height="10.764"/>
        <rect class="cls-6" x="336.229" y="191.704" width="10.764" height="10.764"/>
        <rect class="cls-6" x="336.229" y="210.79" width="10.764" height="10.764"/>
        <rect class="cls-6" x="336.229" y="229.876" width="10.764" height="10.764"/>
        <rect class="cls-6" x="336.229" y="248.962" width="10.764" height="10.764"/>
        <rect class="cls-6" x="515.004" y="96.274" width="41.383" height="10.764"/>
        <rect class="cls-6" x="388.793" y="134.446" width="90.797" height="10.764"/>
        <rect class="cls-6" x="388.793" y="172.618" width="90.797" height="10.764"/>
        <rect class="cls-5" x="388.793" y="191.704" width="33.736" height="10.764"/>
        <rect class="cls-6" x="388.793" y="229.876" width="194.579" height="10.764"/>
        <rect class="cls-6" x="425.307" y="191.704" width="160.728" height="10.764"/>
        <rect class="cls-6" x="486.937" y="172.618" width="162.542" height="10.764"/>
        <rect class="cls-6" x="486.937" y="134.446" width="90.797" height="10.764"/>
        <rect class="cls-7" x="354.858" y="115.36" width="58.492" height="10.764"/>
        <rect class="cls-7" x="354.858" y="153.532" width="58.492" height="10.764"/>
        <rect class="cls-7" x="354.858" y="210.79" width="58.492" height="10.764"/>
        <g>
          <path class="cls-8" d="M357.506,43.786L345.78,50.825v-2.3l9.405-5.6-9.405-5.737V34.93l11.726,6.976v1.881Z"/>
          <path class="cls-8" d="M380.142,61.187H360.876V59.134h19.266v2.053Z"/>
        </g>
        <polygon class="cls-9" points="587.513 357.793 166.893 357.793 330.573 292.105 751.193 292.105 587.513 357.793"/>
        <polygon class="cls-10" points="544.518 270.141 322.839 270.141 322.839 15.742 684.531 15.742 544.518 270.141"/>
      </g>
      <g>
        <g>
          <path class="cls-11" d="M7.866,408.535c0-122.978,79.845-222.67,178.338-222.67s178.338,99.693,178.338,222.67"/>
          <path class="cls-12" d="M372.407,408.535h-15.73c0-118.444-76.474-214.805-170.473-214.805S15.73,290.092,15.73,408.535H0C0,281.417,83.53,178,186.2,178S372.407,281.417,372.407,408.535Z"/>
        </g>
        <g>
          <path class="cls-12" d="M364.542,358.632c0-122.978-269.739-172.767-171.245-172.767s178.338,99.693,178.338,222.67"/>
          <path class="cls-12" d="M379.5,408.535h-15.73a267.96,267.96,0,0,0-4.644-49.9h-2.449c0-71.437-100.786-117.987-154.932-143-10.18-4.7-18.973-8.764-25.082-12.088-5.4-2.939-14.443-7.859-12.65-16.014,1.949-8.87,12.861-9.533,29.285-9.533C295.97,178,379.5,281.417,379.5,408.535Zm-187.416-214.8c5.023,2.433,10.795,5.1,16.257,7.621,31.43,14.517,77.7,35.892,113.1,65.665-31.267-44.9-77.124-73.288-128.145-73.288Q192.675,193.73,192.084,193.733Z"/>
        </g>
        <path class="cls-12" d="M7.866,408.535c0-122.978,79.845-222.67,178.338-222.67S76.115,285.558,76.115,408.535"/>
        <g>
          <path d="M175.847,408.535c0-14.649,4.637-26.525,10.357-26.525s10.357,11.875,10.357,26.525"/>
          <path d="M196.954,408.535h-0.787c0-14.409-4.47-26.132-9.964-26.132s-9.964,11.722-9.964,26.132h-0.787c0-15.094,4.722-26.918,10.75-26.918S196.954,393.441,196.954,408.535Z"/>
        </g>
        <g>
          <path d="M278.011,408.535c0-14.649,4.637-26.525,10.357-26.525s10.357,11.875,10.357,26.525"/>
          <path d="M299.117,408.535h-0.787c0-14.409-4.47-26.132-9.964-26.132s-9.964,11.722-9.964,26.132h-0.787c0-15.094,4.722-26.918,10.75-26.918S299.117,393.441,299.117,408.535Z"/>
        </g>
        <path d="M306.918,360.213a5.5,5.5,0,0,1-4.83-2.856c-2.954-5.375-6.6-9.066-10.266-10.394-8.461-3.062-15.973,7.97-16.8,9.237a5.505,5.505,0,0,1-9.214-6.028c5.937-9.079,17.3-18.077,29.761-13.563,7.928,2.868,13.169,9.982,16.171,15.445A5.508,5.508,0,0,1,306.918,360.213Z"/>
        <path d="M204.576,362.239a5.5,5.5,0,0,1-4.83-2.856c-2.954-5.375-6.6-9.066-10.266-10.394-8.469-3.06-15.973,7.97-16.8,9.237a5.505,5.505,0,0,1-9.214-6.028c5.937-9.079,17.3-18.079,29.761-13.563,7.928,2.868,13.169,9.982,16.171,15.445A5.508,5.508,0,0,1,204.576,362.239Z"/>
      </g>
    </g>
  </g>
</svg>
