<svg xmlns="http://www.w3.org/2000/svg" viewBox="0 0 659.967 1034.948">
  <defs>
    <style>
      .cls-1 {
        isolation: isolate;
      }

      .cls-2, .cls-6 {
        fill: #ff685b;
      }

      .cls-3 {
        fill: #e6e6e6;
      }

      .cls-4 {
        fill: #f2f2f2;
      }

      .cls-5 {
        fill: #333;
      }

      .cls-6 {
        opacity: 0.32;
        mix-blend-mode: multiply;
      }
    </style>
  </defs>
  <title>c6e340a2-d0e9-4401-b5e0-4191428b67eb</title>
  <g class="cls-1">
    <g id="Layer_1" data-name="Layer 1">
      <g id="Book">
        <path class="cls-2" d="M136.493,1034.948L0,998.95V248.987a253.769,253.769,0,0,1,67.906,7.563,253.864,253.864,0,0,1,68.587,28.435v749.963Z"/>
        <polygon class="cls-2" points="659.967 785.961 523.474 749.963 523.474 0 659.967 35.998 659.967 785.961"/>
        <polygon class="cls-3" points="0 248.988 523.474 0 659.967 35.998 136.493 284.986 0 248.988"/>
        <polygon class="cls-2" points="659.88 35.799 136.406 284.986 136.406 1034.55 659.967 785.961 659.88 35.799"/>
        <polygon class="cls-4" points="562.406 150.194 251.406 298.387 251.406 636.55 562.406 476.477 562.406 150.194"/>
        <g>
          <path class="cls-5" d="M359.985,449.731l-14.322,7.3-12.989-34.515-38.553,19.644-13.155,47.836-14.155,7.212L305.2,360.159l16.4-8.358ZM328.76,412.6l-15.4-40.779-15.321,56.433Z"/>
          <path class="cls-5" d="M385.714,319.133l29.81-15.189q16.9-8.612,27.061-5.294t10.158,18.222q0,14.988-10.116,29.093a72.529,72.529,0,0,1-26.521,22.464l-16.736,8.527v52.707l-13.656,6.958V319.133ZM399.37,365.05l14.821-7.552q24.062-12.26,24.064-32.412,0-9.324-6.536-11.74t-16.862,2.846l-15.486,7.891V365.05Z"/>
          <path class="cls-5" d="M544,355.97l-53.373,27.2V371.258l20.233-10.309V267.275l-20.233,10.309V265.677L544,238.482v11.907l-19.484,9.928V353.99L544,344.063V355.97Z"/>
        </g>
        <polygon class="cls-6" points="659.88 35.799 136.406 284.986 136.406 1034.55 399.37 909.694 659.88 35.799"/>
        <path class="cls-6" d="M136.493,1034.948L0,998.95V248.987a269.353,269.353,0,0,1,65.406,7.563,269.59,269.59,0,0,1,71.087,28.435v749.963Z"/>
      </g>
    </g>
  </g>
</svg>
