<svg xmlns="http://www.w3.org/2000/svg" viewBox="0 0 825.85 501.68"><defs><style>.cls-1{isolation:isolate;}.cls-2{fill:#fbb795;}.cls-3,.cls-4{fill:#1a1a1a;}.cls-4{mix-blend-mode:multiply;}</style></defs><g class="cls-1"><g id="Layer_1" data-name="Layer 1"><path class="cls-2" d="M777.25,535.6C777.25,268,951,51,1165.34,51S1553.43,268,1553.43,535.6" transform="translate(-760.13 -33.92)"/><path d="M1570.55,535.6h-34.23c0-257.75-166.42-467.45-371-467.45s-371,209.7-371,467.45H760.13C760.13,259,941.9,33.92,1165.34,33.92S1570.55,259,1570.55,535.6Z" transform="translate(-760.13 -33.92)"/><path d="M1553.43,427c0-267.62-587-376-372.66-376S1568.87,268,1568.87,535.6" transform="translate(-760.13 -33.92)"/><path d="M1586,535.6h-34.23A583.12,583.12,0,0,0,1541.65,427h-5.33c0-155.46-219.33-256.76-337.16-311.18-22.15-10.24-41.29-19.07-54.58-26.31-11.75-6.4-31.43-17.1-27.53-34.85,4.24-19.3,28-20.75,63.73-20.75C1404.21,33.92,1586,259,1586,535.6ZM1178.14,68.16c10.93,5.3,23.49,11.1,35.38,16.58,68.4,31.59,169.1,78.11,246.13,142.9-68-97.71-167.84-159.49-278.86-159.49Z" transform="translate(-760.13 -33.92)"/><path d="M777.25,535.6C777.25,268,951,51,1165.34,51S925.77,268,925.77,535.6" transform="translate(-760.13 -33.92)"/><path d="M1142.8,535.6c0-31.88,10.09-57.72,22.54-57.72s22.54,25.84,22.54,57.72" transform="translate(-760.13 -33.92)"/><path d="M1188.73,535.6H1187c0-31.36-9.73-56.87-21.68-56.87s-21.68,25.51-21.68,56.87h-1.71c0-32.85,10.28-58.58,23.39-58.58S1188.73,502.76,1188.73,535.6Z" transform="translate(-760.13 -33.92)"/><path d="M1365.13,535.6c0-31.88,10.09-57.72,22.54-57.72s22.54,25.84,22.54,57.72" transform="translate(-760.13 -33.92)"/><path d="M1411.06,535.6h-1.71c0-31.36-9.73-56.87-21.68-56.87S1366,504.25,1366,535.6h-1.71c0-32.85,10.28-58.58,23.39-58.58S1411.06,502.76,1411.06,535.6Z" transform="translate(-760.13 -33.92)"/><path d="M1428,370.45a12,12,0,0,1-10.51-6.21c-6.43-11.7-14.36-19.73-22.34-22.62-18.41-6.66-34.76,17.34-36.56,20.1a12,12,0,0,1-20.05-13.12c12.92-19.76,37.65-39.34,64.77-29.51,17.25,6.24,28.66,21.72,35.19,33.61A12,12,0,0,1,1428,370.45Z" transform="translate(-760.13 -33.92)"/><path d="M1205.32,374.86a12,12,0,0,1-10.51-6.21c-6.43-11.7-14.36-19.73-22.34-22.62-18.43-6.66-34.76,17.34-36.56,20.1A12,12,0,0,1,1115.85,353c12.92-19.76,37.65-39.34,64.77-29.51,17.25,6.24,28.66,21.72,35.19,33.61a12,12,0,0,1-10.49,17.75Z" transform="translate(-760.13 -33.92)"/><rect class="cls-3" x="343.97" y="372.1" width="148.08" height="129.58" rx="8.2" ry="8.2"/><rect class="cls-3" x="554.14" y="369.53" width="148.08" height="132.15" rx="8.2" ry="8.2"/><rect x="492.04" y="436.89" width="62.1" height="24.12"/><path class="cls-4" d="M1148.95,535.6H1112.3a8.2,8.2,0,0,1-8.2-8.2V414.22a8.2,8.2,0,0,1,8.2-8.2h132.8a3.5,3.5,0,0,1,2.78,5.62l-92.41,120.74A8.2,8.2,0,0,1,1148.95,535.6Z" transform="translate(-760.13 -33.92)"/><path class="cls-4" d="M1359.12,533h-36.65a8.2,8.2,0,0,1-8.2-8.2V411.65a8.2,8.2,0,0,1,8.2-8.2h132.66a3.56,3.56,0,0,1,2.83,5.73l-92.33,120.64A8.2,8.2,0,0,1,1359.12,533Z" transform="translate(-760.13 -33.92)"/></g></g></svg>