<svg id="Layer_1" data-name="Layer 1" xmlns="http://www.w3.org/2000/svg" viewBox="0 0 575.52 498.33"><defs><style>.cls-1,.cls-7{fill:#333;}.cls-2{fill:#1a1a1a;}.cls-10,.cls-12,.cls-3{fill:none;stroke-linecap:round;}.cls-12,.cls-3,.cls-4,.cls-5,.cls-6,.cls-7,.cls-9{stroke:#000;}.cls-3,.cls-6,.cls-7{stroke-linejoin:bevel;}.cls-12,.cls-3,.cls-4,.cls-5,.cls-6,.cls-7{stroke-width:10px;}.cls-4{fill:#66bc96;}.cls-10,.cls-12,.cls-4,.cls-5,.cls-9{stroke-miterlimit:10;}.cls-5{fill:#ff685b;}.cls-6{fill:#4d4d4d;}.cls-8{fill:#666;}.cls-9{fill:#f2f2f2;stroke-width:4px;}.cls-10{stroke:#c1272d;stroke-width:2px;}.cls-11{fill:gray;}</style></defs><polygon points="287.85 493.6 71.51 418.61 287.85 344.64 504.75 415.61 287.85 493.6"/><polygon class="cls-1" points="504.75 415.61 287.85 344.64 287.85 98.82 504.75 158.24 504.75 415.61"/><polygon class="cls-2" points="71.51 408.11 287.85 338.82 287.85 98.82 71.51 156.83 71.51 408.11"/><line class="cls-3" x1="288.15" y1="99.15" x2="288.15" y2="339.15"/><polygon class="cls-3" points="287.85 98.82 71.51 156.83 288.41 221.63 504.19 158.84 287.85 98.82"/><path class="cls-4" d="M615,340.31h22.18c1.42.56,2.8,1.45,4.26,1.62,34.48,4,66.26,30.64,71.92,66.36.73,4.63,1.88,9.2,2.83,13.8V429c-.63,4-1.21,7.93-1.91,11.88-7.57,42.41-42.69,68.8-82.44,69.7-17.21.39-34.49,1.57-50.73,8.2-28.66,11.69-41.54,26-42.61,53.16-.7,17.62-8.31,31.68-22.83,41.15-7.67,5-16.89,7.65-25.41,11.36H469.44a33.24,33.24,0,0,0-4.22-1.73c-20.51-5.37-35.53-16.72-41.63-37.93a48.7,48.7,0,0,0-2.66-6.09V555.16a21.47,21.47,0,0,0,1.75-3.5c6.42-21.92,20.88-35.29,43.13-39.84,8-1.64,16.56-1.12,24.52-3,17-4.06,27.89-15.9,36.15-30.71,10.35-18.54,11.34-39,12.46-59.4,1.84-33.38,22.69-62.11,55.16-72.58C601,343.9,608,342.23,615,340.31Z" transform="translate(-235.91 -335.31)"/><path class="cls-5" d="M620.59,423.07h15.13a12.56,12.56,0,0,0,2.9,1.1c23.53,2.73,45.21,20.91,49.07,45.28.5,3.16,1.28,6.28,1.93,9.42v4.73c-.43,2.7-.82,5.41-1.3,8.11-5.17,28.94-29.13,46.94-56.25,47.56-11.74.26-23.53,1.07-34.62,5.6-19.56,8-28.34,17.73-29.07,36.27-.48,12-5.67,21.62-15.58,28.08-5.24,3.42-11.52,5.22-17.34,7.75H521.28a22.68,22.68,0,0,0-2.88-1.18c-14-3.66-24.24-11.41-28.41-25.88a33.23,33.23,0,0,0-1.82-4.15V569.66a14.65,14.65,0,0,0,1.19-2.39c4.38-15,14.25-24.08,29.43-27.18,5.49-1.12,11.3-.77,16.73-2.06,11.62-2.77,19-10.85,24.67-21,7.06-12.65,7.74-26.64,8.5-40.53,1.26-22.77,15.48-42.38,37.64-49.52C611,425.52,615.83,424.38,620.59,423.07Z" transform="translate(-235.91 -335.31)"/><polygon class="cls-6" points="287.85 493.6 71.51 418.61 71.51 158.84 287.85 221.63 287.85 493.6"/><polygon class="cls-7" points="287.85 493.6 504.75 418.61 504.75 158.84 288.41 221.63 287.85 493.6"/><polygon class="cls-8" points="347.36 321.11 567.58 238.62 504.19 158.84 287.85 221.63 347.36 321.11"/><polygon class="cls-9" points="352.99 383.85 322.76 400.41 319.56 383.2 349.79 366.65 352.99 383.85"/><line class="cls-10" x1="346.26" y1="374.09" x2="324.85" y2="385.47"/><polygon class="cls-11" points="228.34 321.11 8.11 238.62 71.51 156.83 287.85 221.63 228.34 321.11"/><line class="cls-10" x1="347.55" y1="379.78" x2="326.15" y2="391.15"/><polygon class="cls-12" points="71.51 156.83 288.41 221.63 228.34 321.11 8.11 238.62 71.51 156.83"/><polygon class="cls-12" points="504.01 156.83 287.11 221.63 347.18 321.11 567.41 238.62 504.01 156.83"/></svg>