<svg id="Layer_1" data-name="Layer 1" xmlns="http://www.w3.org/2000/svg" viewBox="0 0 389.7 460.02"><defs><style>.cls-1{fill:#4e9480;}.cls-1,.cls-2,.cls-3,.cls-4{stroke:#000;stroke-miterlimit:10;}.cls-1,.cls-2,.cls-3{stroke-width:10px;}.cls-2{fill:#2f2f49;}.cls-3{fill:#ff685b;}.cls-4{fill:none;stroke-linecap:round;stroke-width:5px;}</style></defs><path class="cls-1" d="M486,1466.93c-13,1.2-27.21,2-42.41,2-16.61.06-32-.74-46.08-2v-438a107.77,107.77,0,0,1,88.5,0Z" transform="translate(-392.48 -1014.45)"/><path class="cls-2" d="M594,1466.93a387.26,387.26,0,0,1-88.5,0v-438a119.59,119.59,0,0,1,88.5,0Z" transform="translate(-392.48 -1014.45)"/><path class="cls-3" d="M776.37,1450.23a387.26,387.26,0,0,1-86.59,18.26l-90.35-428.56A119.59,119.59,0,0,1,686,1021.67Z" transform="translate(-392.48 -1014.45)"/><line class="cls-4" x1="17.75" y1="60.02" x2="80.75" y2="60.02"/><line class="cls-4" x1="17.75" y1="78.02" x2="80.75" y2="78.02"/><line class="cls-4" x1="17.75" y1="426.52" x2="80.75" y2="426.52"/><line class="cls-4" x1="125.81" y1="60.02" x2="188.81" y2="60.02"/><line class="cls-4" x1="125.81" y1="78.02" x2="188.81" y2="78.02"/><line class="cls-4" x1="125.81" y1="426.52" x2="188.81" y2="426.52"/><line class="cls-4" x1="228.81" y1="67.39" x2="290.45" y2="54.39"/><line class="cls-4" x1="232.52" y1="85" x2="294.17" y2="72"/><line class="cls-4" x1="304.41" y1="426" x2="366.06" y2="413.01"/></svg>