<svg xmlns="http://www.w3.org/2000/svg" viewBox="0 0 1648.92 1061.2"><defs><style>.cls-1{isolation:isolate;}.cls-2,.cls-9{fill:#00b5ed;stroke:#000;stroke-width:20px;}.cls-10,.cls-2,.cls-9{stroke-miterlimit:10;}.cls-3{fill:#50bfed;}.cls-4{fill:#fbb795;}.cls-5,.cls-6{fill:#1a1a1a;}.cls-6,.cls-9{mix-blend-mode:multiply;}.cls-7{fill:#fff;}.cls-8{fill:#333;}.cls-9{opacity:0.17;}.cls-10{fill:none;stroke:#22b573;stroke-width:10px;}.cls-11{fill:#22b573;}</style></defs><g class="cls-1"><g id="Layer_1" data-name="Layer 1"><rect class="cls-2" x="10" y="10" width="1628.92" height="1041.2" rx="36.7" ry="36.7"/><rect class="cls-3" x="91" y="60.4" width="662.97" height="914.8" rx="54.49" ry="54.49"/><rect class="cls-3" x="788.41" y="135.01" width="753.47" height="189.72"/><rect class="cls-3" x="788.41" y="375.56" width="753.47" height="189.72"/><rect class="cls-3" x="788.41" y="622.22" width="753.47" height="328.86"/><path class="cls-4" d="M772.18,535.14c0-177.92,115.51-322.15,258-322.15s258,144.23,258,322.15" transform="translate(-622.32 -64.73)"/><path d="M1299.57,535.14h-22.76c0-171.36-110.64-310.77-246.63-310.77S783.55,363.79,783.55,535.14H760.8c0-183.91,120.85-333.52,269.39-333.52S1299.57,351.24,1299.57,535.14Z" transform="translate(-622.32 -64.73)"/><path d="M1288.19,462.95C1288.19,285,898,213,1040.45,213s258,144.23,258,322.15" transform="translate(-622.32 -64.73)"/><path d="M1309.83,535.14h-22.76a387.67,387.67,0,0,0-6.72-72.2h-3.54c0-103.35-145.81-170.7-224.15-206.88-14.73-6.81-27.45-12.68-36.29-17.49-7.81-4.25-20.9-11.37-18.3-23.17,2.82-12.83,18.61-13.79,42.37-13.79C1189,201.62,1309.83,351.24,1309.83,535.14ZM1038.69,224.38c7.27,3.52,15.62,7.38,23.52,11,45.47,21,112.42,51.93,163.63,95-45.23-65-111.58-106-185.39-106Z" transform="translate(-622.32 -64.73)"/><path d="M772.18,535.14c0-177.92,115.51-322.15,258-322.15S870.92,357.23,870.92,535.14" transform="translate(-622.32 -64.73)"/><path d="M1015.2,535.14c0-21.19,6.71-38.37,15-38.37s15,17.18,15,38.37" transform="translate(-622.32 -64.73)"/><path d="M1045.74,535.14h-1.14c0-20.85-6.47-37.81-14.41-37.81s-14.41,17-14.41,37.81h-1.14c0-21.84,6.83-38.94,15.55-38.94S1045.74,513.31,1045.74,535.14Z" transform="translate(-622.32 -64.73)"/><path d="M1163,535.14c0-21.19,6.71-38.37,15-38.37s15,17.18,15,38.37" transform="translate(-622.32 -64.73)"/><path d="M1193.54,535.14h-1.14c0-20.85-6.47-37.81-14.41-37.81s-14.41,17-14.41,37.81h-1.14c0-21.84,6.83-38.94,15.55-38.94S1193.54,513.31,1193.54,535.14Z" transform="translate(-622.32 -64.73)"/><path d="M1204.83,425.34a8,8,0,0,1-7-4.13c-4.27-7.78-9.55-13.12-14.85-15-12.24-4.43-23.11,11.53-24.31,13.36a8,8,0,0,1-13.33-8.72c8.59-13.13,25-26.15,43.06-19.62,11.47,4.15,19.05,14.44,23.4,22.34a8,8,0,0,1-7,11.8Z" transform="translate(-622.32 -64.73)"/><path d="M1056.76,428.28a8,8,0,0,1-7-4.13c-4.27-7.78-9.55-13.12-14.85-15-12.25-4.43-23.11,11.53-24.31,13.36a8,8,0,0,1-13.33-8.72c8.59-13.13,25-26.16,43.06-19.62,11.47,4.15,19.05,14.44,23.4,22.34a8,8,0,0,1-7,11.8Z" transform="translate(-622.32 -64.73)"/><rect class="cls-5" x="367.15" y="384.27" width="98.44" height="86.15" rx="8.2" ry="8.2"/><rect class="cls-5" x="506.88" y="382.56" width="98.44" height="87.85" rx="8.2" ry="8.2"/><rect x="465.6" y="427.34" width="41.28" height="16.03"/><path class="cls-6" d="M1019.29,535.14H994.92a5.45,5.45,0,0,1-5.45-5.45V454.45a5.45,5.45,0,0,1,5.45-5.45h88.28a2.33,2.33,0,0,1,1.85,3.74L1023.62,533A5.45,5.45,0,0,1,1019.29,535.14Z" transform="translate(-622.32 -64.73)"/><path class="cls-6" d="M1159,533.44h-24.37a5.45,5.45,0,0,1-5.45-5.45V452.74a5.45,5.45,0,0,1,5.45-5.45h88.2a2.37,2.37,0,0,1,1.88,3.81l-61.38,80.2A5.45,5.45,0,0,1,1159,533.44Z" transform="translate(-622.32 -64.73)"/><path class="cls-7" d="M1516.93,312.11c0,26.86-9.35,38.25-33,38.25-4.42,0-10.88-.34-14.79-1.36V331.32a102.54,102.54,0,0,0,11.39.68c12.58,0,14.45-8.67,14.45-18.53V231h21.93Z" transform="translate(-622.32 -64.73)"/><path class="cls-7" d="M1537,348.66V320.44h22.61v28.22Z" transform="translate(-622.32 -64.73)"/><path class="cls-7" d="M1638.3,314.83c2.89,12.58,11.73,18.53,26.52,18.53,15.13,0,21.42-6.46,21.42-16,0-10.2-5.61-15.3-27-20.23-30.43-7.31-38.93-18.19-38.93-34.34,0-19.38,14.45-33.49,41.82-33.49,30.09,0,42.16,16.66,43.86,33.15h-22.27c-1.53-8.33-6.46-16.32-22.27-16.32-11.73,0-18.53,4.93-18.53,14.28,0,9.18,5.61,12.92,25.16,17.51,33.83,8,40.8,20.91,40.8,36.89,0,20.57-15.47,35.36-45.73,35.36-29.75,0-44.37-15.13-47.09-35.36Z" transform="translate(-622.32 -64.73)"/><path class="cls-7" d="M1726,283.72c0-7.48,0-15.13-.17-22.44h20.23c.34,2.21.68,7.65.85,11.39,4.25-7,11.56-13.43,24.65-13.43,12.41,0,19.89,6.46,23.12,14.11,4.93-7.48,12.75-14.11,27.2-14.11,15,0,27.71,9,27.71,32.13v57.29h-20.74V293.92c0-8.67-3.06-17.51-14.28-17.51-11.56,0-16.32,8.16-16.32,22.27v50h-20.74V294.6c0-9.69-2.55-18-13.94-18s-16.66,7.82-16.66,23.46v48.62H1726Z" transform="translate(-622.32 -64.73)"/><path class="cls-7" d="M1872.73,245V224.39h21.08V245Zm0,16.32h21.08v87.38h-21.08Z" transform="translate(-622.32 -64.73)"/><path class="cls-7" d="M1907.58,261.28h13.94V237h21.08v24.31h17.85v16.15H1942.6v45.9c0,7.31,2,10.37,9.52,10.37a41.19,41.19,0,0,0,6.29-.34v14.79c-4.42,1.53-10.54,1.7-15.3,1.7-15.81,0-21.59-8.5-21.59-23.46v-49h-13.94Z" transform="translate(-622.32 -64.73)"/><path class="cls-7" d="M1996.15,224.39V272.5c4.08-6.46,11.39-13.26,25.84-13.26,15.47,0,29.24,9,29.24,33.49v55.93h-20.91V296c0-12.58-4.76-19.38-15.81-19.38-14.28,0-18.36,10.2-18.36,25.16v46.92h-21.08V224.39Z" transform="translate(-622.32 -64.73)"/><path class="cls-8" d="M1142.87,811.42H932.13V751.75c0-61.49,43.86-111.51,97.76-111.51h15.21c53.91,0,97.76,50,97.76,111.51ZM951.6,792h171.81v-40.2c0-24.74-8.34-48-23.49-65.51-14.8-17.11-34.26-26.53-54.81-26.53H1029.9c-20.55,0-40,9.42-54.81,26.53C959.94,703.75,951.6,727,951.6,751.75Z" transform="translate(-622.32 -64.73)"/><path class="cls-8" d="M1160,807.26A36.26,36.26,0,0,0,1123.74,771H952.26A36.26,36.26,0,0,0,916,807.26V926.74A36.26,36.26,0,0,0,952.26,963h171.47A36.26,36.26,0,0,0,1160,926.74ZM1023.59,885l5.84-32.6a15,15,0,0,1-5.3-11.46,14.6,14.6,0,1,1,29.2.08,14.79,14.79,0,0,1-5.3,11.36l5.84,32.62Z" transform="translate(-622.32 -64.73)"/><path class="cls-9" d="M669,1115.93a36.7,36.7,0,0,1-36.7-36.7V111.43A36.7,36.7,0,0,1,669,74.73H2224.53a36.7,36.7,0,0,1,36.7,36.7" transform="translate(-622.32 -64.73)"/><circle class="cls-10" cx="1228.81" cy="782.54" r="128.62"/><rect class="cls-11" x="1772.31" y="786.97" width="72.28" height="67.74" transform="translate(-673.05 1454.46) rotate(-45)"/><rect class="cls-11" x="1788.65" y="754.13" width="298.74" height="72.28" transform="translate(-613.49 1537.12) rotate(-45)"/></g></g></svg>