<svg id="Layer_1" data-name="Layer 1" xmlns="http://www.w3.org/2000/svg" viewBox="0 0 365.07 222.18"><defs><style>.cls-1{fill:#fff;}</style></defs><rect width="365.07" height="222.18" rx="27.85" ry="27.85"/><path class="cls-1" d="M162.12,120.63l-25.93,16.73v-5.48l20.8-13.3-20.8-13.64V99.58l25.93,16.58Z" transform="translate(-112.17 -62.6)"/><path class="cls-1" d="M212.19,162H169.58v-4.88h42.61Z" transform="translate(-112.17 -62.6)"/><path class="cls-1" d="M263.1,142.09a21.74,21.74,0,0,1-13.35,4.29q-9.5,0-14.44-7t-4.94-20.27q0-12.82,4.78-20.07t14.6-7.25a25.89,25.89,0,0,1,7,1,16.61,16.61,0,0,1,5.58,2.57l-1.87,4.81a20.19,20.19,0,0,0-10.71-3q-6.76,0-10.05,5.27T236.4,119.1q0,21.91,13.35,21.91a21.73,21.73,0,0,0,11.58-3.73Z" transform="translate(-112.17 -62.6)"/><path class="cls-1" d="M304.08,145.37H277.45V92.79h5.69V140h20.94Z" transform="translate(-112.17 -62.6)"/><path class="cls-1" d="M343.36,145.37H321.13V140h8.43V98.12h-8.43V92.79h22.22v5.33h-8.11V140h8.11Z" transform="translate(-112.17 -62.6)"/></svg>